<?xml version="1.0" encoding="UTF-8" standalone="no"?>
<!-- Created with Inkscape (http://www.inkscape.org/) -->

<svg
   width="35.024132mm"
   height="33.744808mm"
   viewBox="0 0 35.024132 33.744808"
   version="1.1"
   id="svg1"
   inkscape:export-filename="logo-responsive-2.svg"
   inkscape:export-xdpi="96"
   inkscape:export-ydpi="96"
   xmlns:inkscape="http://www.inkscape.org/namespaces/inkscape"
   xmlns:sodipodi="http://sodipodi.sourceforge.net/DTD/sodipodi-0.dtd"
   xmlns="http://www.w3.org/2000/svg"
   xmlns:svg="http://www.w3.org/2000/svg">
  <sodipodi:namedview
     id="namedview1"
     pagecolor="#ffffff"
     bordercolor="#000000"
     borderopacity="0.25"
     inkscape:showpageshadow="2"
     inkscape:pageopacity="0.0"
     inkscape:pagecheckerboard="0"
     inkscape:deskcolor="#d1d1d1"
     inkscape:document-units="mm">
    <inkscape:page
       x="6.1023726e-15"
       y="0"
       width="35.024136"
       height="33.744808"
       id="page2"
       margin="0"
       bleed="0" />
  </sodipodi:namedview>
  <defs
     id="defs1" />
  <g
     inkscape:label="Layer 1"
     inkscape:groupmode="layer"
     id="layer1"
     transform="translate(-70.876048,-130.62499)">
    <path
       d="m 96.814711,131.36464 c 0.950198,0.18059 0.188976,1.03159 0.502178,1.34696 0.08153,-0.0479 0.154935,-0.0871 0.253489,-0.12365 0.132487,0.0437 0.161244,0.0884 0.204848,0.17098 0.314272,0.59594 0.716547,1.53682 0.340221,2.12842 -0.597362,0.93904 -1.583467,1.84112 -2.358735,2.73817 l -4.204062,4.84841 c -0.370057,0.41718 -0.775149,0.82474 -1.131001,1.24582 -0.333715,0.39494 -0.618865,0.80223 -0.951866,1.19689 -0.388784,0.4607 -0.82641,0.89834 -1.171591,1.37166 -0.486546,0.66721 -0.870728,1.33758 -1.304187,2.01459 -0.232699,0.36371 -0.503289,0.71889 -0.728807,1.08421 -0.793321,1.28491 -1.515502,2.58726 -2.27482,3.87934 -0.206435,0.3512 -0.486625,0.68768 -0.703137,1.03733 l -2.035851,3.35936 c -0.236826,0.38938 -0.413701,0.78971 -0.655407,1.17888 -0.455757,0.73367 -0.990867,1.46064 -1.506456,2.18182 -0.250832,0.35076 -0.470993,0.76314 -0.811729,1.08823 -0.08665,0.0826 -0.177193,0.14223 -0.342087,0.16834 -0.145728,-0.19558 0.294714,-0.7685 0.390967,-0.994 -0.277137,0.29338 -0.437864,0.61869 -0.661596,0.92568 -0.220717,0.30277 -0.508566,0.59525 -0.777727,0.88506 -0.162751,0.17527 -0.333993,0.3847 -0.578594,0.52938 -0.131242,0.0779 -0.35038,0.13217 -0.51797,0.18219 0.116246,-0.20564 0.222542,-0.40391 0.28265,-0.61735 -0.276976,0.35478 -0.609977,0.95002 -1.182269,1.17843 l -0.08648,-0.0179 c -0.06829,-0.0598 -0.06994,-0.0924 -0.06202,-0.16054 0.0078,-0.0674 0.0069,-0.1266 -0.0074,-0.19425 -0.05898,0.0107 -0.118226,0.0212 -0.177543,0.0315 -0.04188,-0.0262 -0.05564,-0.0324 -0.08982,-0.0674 -0.490376,-0.50437 -0.438237,-1.48722 -0.306482,-2.04518 0.0772,-0.32709 0.228594,-0.65307 0.351827,-0.97547 l -0.03678,-0.007 0.0229,-0.0317 c -0.40058,0.2985 -0.323184,0.81695 -0.573393,1.15409 -0.104819,0.006 -0.08287,0.0163 -0.163,-0.0186 -0.397969,-0.17416 -0.187617,-0.58677 -0.2793,-0.83013 -0.0505,0.0927 -0.09621,0.23979 -0.216058,0.3061 -0.101671,-0.20675 -0.285624,-0.47423 -0.246595,-0.68835 0.126788,-0.69616 0.751446,-1.77189 1.081269,-2.47855 0.206893,-0.4432 0.385147,-0.89086 0.600833,-1.33316 0.1528,-0.31302 0.350469,-0.61869 0.496167,-0.93305 0.457095,-0.98553 0.88008,-1.95252 1.459785,-2.9193 0.477895,-0.81629 0.811332,-1.66092 1.27943,-2.4781 0.208416,-0.36415 0.473611,-0.7176 0.679132,-1.08265 0.215441,-0.38265 0.364781,-0.77674 0.592085,-1.15711 0.399218,-0.66819 0.868902,-1.32439 1.147903,-2.01314 -0.521936,-0.86514 -1.195912,-1.70792 -1.763952,-2.5642 l -3.827942,-5.87473 c -0.451179,-0.68565 -0.884706,-1.37663 -1.354802,-2.05806 -0.337519,-0.48927 -0.763389,-0.9863 -0.986606,-1.49545 -0.143268,-0.32677 -0.184599,-0.66781 -0.234306,-1.00236 0.274101,0.27856 0.471561,0.591 0.691047,0.88447 -0.04371,-0.11952 -0.08789,-0.23928 -0.123159,-0.35967 -0.02825,-0.0964 -0.04662,-0.20193 0.05824,-0.28565 0.339243,0.0958 0.555657,0.4876 0.717509,0.68493 -0.114972,-0.28517 -0.237501,-0.57413 -0.28516,-0.86587 -0.03734,-0.22852 -0.05432,-0.48763 0.22038,-0.67317 0.102705,-0.0251 0.121839,-0.0403 0.2375,-0.028 0.397089,0.0424 0.814912,0.3862 1.032931,0.5672 -0.106634,-0.38771 -0.369462,-0.86806 -0.199685,-1.25848 0.03544,-0.0814 0.09362,-0.10862 0.211941,-0.15372 0.119246,-0.008 0.210751,-0.009 0.323177,0.0156 0.423068,0.0911 0.727145,0.32327 1.026341,0.50551 0.452663,0.27572 0.977455,0.55416 1.339697,0.87033 0.696154,0.60765 1.177661,1.34536 1.663017,2.01263 0.934131,1.29749 1.797637,2.61075 2.589211,3.93793 0.199808,0.33252 0.361211,0.67185 0.563438,1.00446 0.266425,0.43824 0.574508,0.86561 0.851049,1.30114 0.313083,0.49319 0.603472,0.98531 1.003008,1.45954 0.452662,-0.65006 1.328112,-1.467 1.903413,-2.12076 0.638544,-0.72554 1.304147,-1.44611 1.930552,-2.17448 0.957341,-1.11319 4.885217,-5.85648 6.014355,-6.38892 0.188263,-0.0888 0.367042,-0.0824 0.597678,-0.063 0.03047,0.003 0.06058,0.01 0.09122,0.008 0.04293,-0.003 1.50725,-0.80925 2.166981,-0.95074 z"
       fill="#515150"
       id="path3"
       style="fill:#333333;stroke-width:0.297633" />
    <path
       d="m 102.52288,137.72324 c 0.0932,0.01 0.18761,0.0164 0.27571,0.0464 0.20299,0.0692 0.30343,0.17529 0.38857,0.30699 0.0741,0.11578 0.14974,0.26282 0.31194,0.34411 0.0635,-0.0212 0.13928,-0.0533 0.20983,-0.0638 0.14993,-0.0223 0.28539,0.0295 0.41533,0.0895 0.6873,0.31687 1.48368,0.80913 1.68918,1.34015 0.12887,0.33378 0.10662,1.03885 -0.017,1.3531 -0.10612,0.26932 -0.33591,0.53036 -0.4909,0.78722 -0.35636,0.59111 -0.71627,1.18674 -1.05396,1.78361 -1.02314,1.78776 -2.07388,3.56667 -3.15325,5.33638 -0.26008,0.43433 -0.48115,0.881 -0.74361,1.31439 -0.480648,0.79361 -1.009208,1.57405 -1.47665,2.37136 -0.225719,0.38464 -0.365732,0.79585 -0.561675,1.18931 -0.26969,0.54194 -0.589777,1.07038 -0.885105,1.60484 -0.221125,0.4002 -0.394723,0.80873 -0.752309,1.15903 -0.05012,0.0441 -0.113575,0.10688 -0.187066,0.13538 -0.130659,0.0513 -0.296479,0.0462 -0.454356,0.0315 -1.025408,-0.0949 -1.325683,-0.7583 -1.936176,-0.8175 -0.09001,-0.009 -0.179771,-0.0182 -0.269523,-0.0344 -0.147605,-0.0257 -0.277169,-0.0832 -0.364441,-0.17061 -0.349343,-0.3503 -0.114737,-0.99814 -0.02839,-1.3635 0.237841,-1.00286 0.729833,-1.98045 1.104621,-2.95419 0.803489,-2.08631 1.703449,-4.2345 2.683726,-6.27742 0.629647,-1.31317 1.34975,-2.60012 1.993177,-3.90877 0.20214,-0.411 1.493627,-3.23765 1.797947,-3.34235 0.016,-0.006 0.0333,-0.0102 0.0498,-0.0153 0.4364,-0.1358 0.97081,-0.18371 1.45455,-0.24574 z"
       fill="#515150"
       id="path5"
       style="fill:#333333;stroke-width:0.285377" />
    <path
       d="m 93.328749,156.99712 c 0.336425,0.0338 0.745411,0.14689 1.059601,0.25119 0.819615,0.27173 1.42399,0.78251 1.771581,1.32013 0.260432,0.40241 0.444433,0.88296 0.197167,1.26173 -0.278245,0.42513 -1.382354,1.58141 -1.879934,1.87127 -0.140097,0.0813 -0.335267,0.11374 -0.51705,0.14885 -0.07168,0.11178 -0.129981,0.18753 -0.265724,0.26806 -0.04023,0.003 -0.08057,0.005 -0.121525,0.006 -0.557731,0.007 -1.458775,-0.4486 -1.896639,-0.70751 -0.150358,-0.0883 -0.394321,-0.26518 -0.437373,-0.39307 -0.0203,-0.0608 0.01703,-0.13497 -0.0046,-0.19547 -0.09778,-0.26486 -0.643562,-0.37145 -0.717306,-0.95356 -0.09524,-0.75128 0.362609,-1.84606 1.106397,-2.3592 0.459748,-0.3176 0.967667,-0.53741 1.705397,-0.51815 z"
       fill="#515150"
       id="path6"
       style="fill:#333333;stroke-width:0.285377" />
    <path
       d="m 95.500734,130.62521 c 0.950199,0.18059 0.188977,1.03159 0.502178,1.34696 0.08153,-0.0479 0.154935,-0.0871 0.253489,-0.12364 0.132486,0.0437 0.161243,0.0884 0.204848,0.17097 0.314272,0.59594 0.716547,1.53682 0.340221,2.12842 -0.597362,0.93904 -1.583467,1.84113 -2.358735,2.73817 l -4.204062,4.84841 c -0.370057,0.41719 -0.775148,0.82475 -1.131001,1.24582 -0.333714,0.39495 -0.618865,0.80224 -0.951866,1.1969 -0.388784,0.4607 -0.82641,0.89834 -1.17159,1.37165 -0.486547,0.66721 -0.870729,1.33758 -1.304188,2.01459 -0.232699,0.36371 -0.50329,0.7189 -0.728807,1.08421 -0.79332,1.28492 -1.515502,2.58726 -2.27482,3.87935 -0.206433,0.3512 -0.486625,0.68767 -0.703136,1.03732 l -2.035852,3.35936 c -0.236826,0.38939 -0.4137,0.78971 -0.655406,1.17888 -0.455758,0.73367 -0.990868,1.46065 -1.506457,2.18182 -0.25083,0.35076 -0.470993,0.76315 -0.811729,1.08823 -0.08666,0.0826 -0.177193,0.14223 -0.342087,0.16835 -0.145727,-0.19559 0.294714,-0.76851 0.390968,-0.99401 -0.277138,0.29338 -0.437863,0.61869 -0.661597,0.92569 -0.220718,0.30276 -0.508566,0.59524 -0.777727,0.88505 -0.162751,0.17527 -0.333992,0.3847 -0.578595,0.52938 -0.131241,0.0779 -0.350357,0.13218 -0.517953,0.18219 0.116262,-0.20563 0.222538,-0.4039 0.282627,-0.61734 -0.276961,0.35477 -0.609953,0.95002 -1.182263,1.17843 l -0.08648,-0.0179 c -0.06828,-0.0598 -0.06994,-0.0924 -0.06202,-0.16054 0.0078,-0.0674 0.0069,-0.12659 -0.0074,-0.19424 -0.05898,0.0107 -0.118226,0.0212 -0.177542,0.0315 -0.04188,-0.0261 -0.05563,-0.0324 -0.08982,-0.0674 -0.490374,-0.50437 -0.438236,-1.48722 -0.306481,-2.04517 0.07719,-0.3271 0.228594,-0.65308 0.351827,-0.97549 l -0.03678,-0.007 0.0229,-0.0317 c -0.400579,0.29852 -0.323184,0.81696 -0.573392,1.1541 -0.104819,0.006 -0.08287,0.0163 -0.163001,-0.0186 -0.397969,-0.17415 -0.187614,-0.58676 -0.279298,-0.83012 -0.0505,0.0926 -0.09621,0.23979 -0.21606,0.3061 -0.10167,-0.20675 -0.285623,-0.47423 -0.246594,-0.68835 0.126788,-0.69616 0.751448,-1.77189 1.081269,-2.47855 0.206895,-0.4432 0.385146,-0.89086 0.600833,-1.33315 0.1528,-0.31304 0.350469,-0.6187 0.496167,-0.93307 0.457083,-0.98552 0.880091,-1.95252 1.459784,-2.91929 0.477898,-0.81628 0.811334,-1.66092 1.279431,-2.4781 0.208418,-0.36416 0.473611,-0.7176 0.679132,-1.08262 0.215441,-0.38267 0.364781,-0.77677 0.592084,-1.15714 0.39922,-0.66819 0.868904,-1.32438 1.147905,-2.01314 -0.521938,-0.86514 -1.195913,-1.70792 -1.763954,-2.56419 l -3.827941,-5.87473 c -0.451178,-0.68565 -0.884706,-1.37663 -1.354802,-2.05806 -0.337519,-0.48928 -0.763389,-0.98631 -0.986606,-1.49547 -0.143268,-0.32675 -0.1846,-0.6678 -0.234306,-1.00236 0.274101,0.27856 0.471561,0.59101 0.691048,0.88448 -0.04371,-0.11952 -0.08789,-0.23928 -0.123173,-0.35967 -0.02825,-0.0964 -0.04662,-0.20193 0.05824,-0.28566 0.339241,0.0959 0.555658,0.48761 0.717507,0.68494 -0.114971,-0.28516 -0.237499,-0.57413 -0.285158,-0.86588 -0.03734,-0.22852 -0.05432,-0.48762 0.220381,-0.67316 0.102704,-0.0251 0.121839,-0.0403 0.237499,-0.028 0.397089,0.0424 0.814912,0.38619 1.032932,0.5672 -0.106634,-0.38771 -0.369463,-0.86806 -0.199686,-1.25848 0.03544,-0.0814 0.09362,-0.10862 0.211941,-0.15372 0.119246,-0.008 0.210751,-0.009 0.323176,0.0156 0.423053,0.0911 0.727161,0.32328 1.026357,0.50552 0.452646,0.27572 0.977441,0.55416 1.339682,0.87034 0.696153,0.60763 1.17766,1.34535 1.663016,2.01262 0.93413,1.29748 1.797637,2.61075 2.589212,3.93793 0.199809,0.33252 0.361209,0.67185 0.563438,1.00446 0.266424,0.43824 0.574508,0.8656 0.851049,1.30114 0.313082,0.49319 0.603471,0.9853 1.003007,1.45953 0.452663,-0.65005 1.328113,-1.46698 1.903413,-2.12075 0.638545,-0.72555 1.304149,-1.44611 1.930552,-2.17447 0.957341,-1.1132 4.885219,-5.85649 6.014356,-6.38893 0.188262,-0.0888 0.367042,-0.0824 0.597679,-0.063 0.03047,0.003 0.06058,0.01 0.09122,0.008 0.04293,-0.003 1.50725,-0.80925 2.166981,-0.95074 z"
       fill="#DA3119"
       id="path9"
       style="fill:#cc0000;stroke-width:0.297633" />
    <path
       d="m 101.4609,136.80519 c 0.0932,0.01 0.18761,0.0164 0.2757,0.0464 0.203,0.0692 0.30343,0.17529 0.38856,0.30699 0.0741,0.11579 0.14974,0.26283 0.31197,0.34412 0.0635,-0.0212 0.13928,-0.0533 0.20981,-0.0638 0.14993,-0.0223 0.28539,0.0295 0.41534,0.0895 0.6873,0.31688 1.48367,0.80913 1.68918,1.34016 0.12887,0.33378 0.10661,1.03885 -0.017,1.35309 -0.10612,0.26933 -0.33591,0.53037 -0.49091,0.78721 -0.35635,0.59113 -0.71627,1.18675 -1.05396,1.78362 -1.02313,1.78775 -2.07388,3.56669 -3.15325,5.3364 -0.260078,0.43431 -0.481138,0.88099 -0.743608,1.31438 -0.480642,0.79361 -1.0092,1.57406 -1.476654,2.37136 -0.225719,0.38464 -0.365732,0.79585 -0.561675,1.18931 -0.269679,0.54193 -0.589779,1.07039 -0.885105,1.60483 -0.221125,0.40021 -0.394704,0.80874 -0.75231,1.15904 -0.05012,0.0441 -0.113572,0.10687 -0.187055,0.13538 -0.130669,0.0513 -0.296465,0.0461 -0.454366,0.0315 -1.025406,-0.0949 -1.325678,-0.75829 -1.936171,-0.81749 -0.09001,-0.009 -0.179771,-0.0182 -0.269523,-0.0344 -0.147606,-0.0257 -0.277169,-0.0832 -0.36444,-0.17063 -0.349344,-0.35029 -0.114737,-0.99813 -0.02839,-1.36349 0.23784,-1.00286 0.729831,-1.98046 1.104619,-2.9542 0.803489,-2.0863 1.703452,-4.23451 2.683729,-6.2774 0.629649,-1.31319 1.349744,-2.60013 1.993181,-3.90878 0.202128,-0.411 1.49362,-3.23766 1.79794,-3.34235 0.016,-0.006 0.0333,-0.0102 0.0498,-0.0154 0.4364,-0.13578 0.97082,-0.1837 1.45456,-0.24574 z"
       fill="#DA3119"
       id="path11"
       style="fill:#cc0000;stroke-width:0.285377" />
    <path
       d="m 92.266764,156.07907 c 0.336424,0.0338 0.74541,0.14689 1.0596,0.25119 0.819615,0.27171 1.423995,0.78249 1.771578,1.32012 0.26044,0.40242 0.444422,0.88303 0.197164,1.26175 -0.278233,0.42511 -1.382342,1.58139 -1.879926,1.87125 -0.140094,0.0813 -0.335267,0.11374 -0.51705,0.14884 -0.07168,0.11179 -0.129981,0.18754 -0.265726,0.26808 -0.04023,0.003 -0.08057,0.005 -0.121525,0.006 -0.557731,0.007 -1.458775,-0.44861 -1.896641,-0.7075 -0.150357,-0.0883 -0.394321,-0.26519 -0.437371,-0.39308 -0.0203,-0.0608 0.01703,-0.13498 -0.0046,-0.19549 -0.09779,-0.26485 -0.643563,-0.37143 -0.717308,-0.95354 -0.09524,-0.75128 0.36261,-1.84606 1.106397,-2.3592 0.459748,-0.3176 0.967667,-0.53742 1.705397,-0.51815 z"
       fill="#DA3119"
       id="path12"
       style="fill:#cc0000;stroke-width:0.285377" />
  </g>
</svg>
