<svg width="83" height="150" viewBox="0 0 83 150" fill="none" xmlns="http://www.w3.org/2000/svg">
<path d="M64.0645 2C66.4594 2.80874 64.5408 6.62024 65.3302 8.03279C65.5357 7.81819 65.7207 7.64256 65.9691 7.47893C66.303 7.67478 66.3755 7.87475 66.4854 8.24477C67.2775 10.9139 68.2914 15.1279 67.3429 17.7775C65.8373 21.9834 63.3519 26.0237 61.3979 30.0413L50.8019 51.7566C49.8692 53.625 48.8482 55.4505 47.9513 57.3363C47.1102 59.1053 46.3915 60.9294 45.5522 62.6971C44.5723 64.7604 43.4693 66.7205 42.5993 68.8405C41.373 71.8287 40.4047 74.8312 39.3122 77.8635C38.7257 79.4924 38.0437 81.0832 37.4753 82.7194C35.4758 88.4748 33.6556 94.3078 31.7418 100.094C31.2215 101.667 30.5153 103.175 29.9696 104.74L24.8384 119.786C24.2415 121.531 23.7957 123.324 23.1865 125.067C22.0378 128.352 20.6891 131.609 19.3896 134.839C18.7574 136.409 18.2025 138.256 17.3437 139.712C17.1253 140.083 16.8971 140.349 16.4815 140.467C16.1142 139.591 17.2243 137.024 17.4669 136.015C16.7684 137.329 16.3633 138.785 15.7994 140.161C15.2431 141.517 14.5176 142.827 13.8392 144.124C13.429 144.91 12.9974 145.847 12.3809 146.496C12.0501 146.845 11.4978 147.088 11.0754 147.312C11.3684 146.391 11.6363 145.503 11.7878 144.546C11.0897 146.136 10.2504 148.802 8.80798 149.824L8.59003 149.745C8.41793 149.477 8.41376 149.33 8.43369 149.026C8.45349 148.724 8.4512 148.459 8.4151 148.156C8.26645 148.204 8.11711 148.251 7.96762 148.296C7.86205 148.179 7.8274 148.151 7.74124 147.995C6.50529 145.736 6.6367 141.334 6.96878 138.835C7.16336 137.37 7.54493 135.91 7.85553 134.465L7.76282 134.434L7.82053 134.292C6.8109 135.63 7.00597 137.951 6.37534 139.462C6.11117 139.49 6.16647 139.535 5.96451 139.378C4.96146 138.599 5.49164 136.75 5.26056 135.66C5.13325 136.075 5.01808 136.734 4.716 137.032C4.45975 136.106 3.99611 134.908 4.09448 133.948C4.41405 130.831 5.98844 126.013 6.81973 122.847C7.34119 120.863 7.79046 118.857 8.33408 116.877C8.7192 115.475 9.21741 114.105 9.58463 112.697C10.7367 108.284 11.8028 103.952 13.2639 99.6222C14.4684 95.9659 15.3088 92.1837 16.4886 88.5231C17.0139 86.8927 17.6823 85.3092 18.2003 83.6744C18.7433 81.9606 19.1197 80.1954 19.6926 78.4918C20.6988 75.4991 21.8826 72.5601 22.5858 69.4753C21.2703 65.6005 19.5716 61.8259 18.1399 57.9908L8.49188 31.6788C7.35472 28.6079 6.26205 25.5132 5.07721 22.4612C4.22652 20.2698 3.15315 18.0436 2.59055 15.7633C2.22947 14.2998 2.12528 12.7722 2 11.2738C2.69085 12.5215 3.18853 13.9208 3.74173 15.2352C3.63157 14.7 3.52022 14.1636 3.4313 13.6243C3.3601 13.1927 3.31381 12.72 3.57809 12.345C4.43312 12.7743 4.97858 14.5289 5.38651 15.4126C5.09675 14.1354 4.78791 12.8412 4.66779 11.5346C4.57369 10.5111 4.53088 9.35053 5.22324 8.51952C5.48209 8.40731 5.53032 8.33889 5.82184 8.39427C6.82267 8.58411 7.87576 10.124 8.42526 10.9346C8.15648 9.19818 7.49406 7.04678 7.92197 5.29819C8.01127 4.93344 8.15791 4.81172 8.45615 4.60971C8.75669 4.57451 8.98733 4.57119 9.27069 4.67959C10.337 5.08755 11.1034 6.12745 11.8575 6.94366C12.9984 8.17852 14.3211 9.42568 15.2341 10.8417C16.9887 13.5633 18.2023 16.8674 19.4256 19.856C21.78 25.6672 23.9564 31.549 25.9515 37.4932C26.4551 38.9825 26.8619 40.5023 27.3716 41.992C28.0431 43.9548 28.8196 45.8689 29.5166 47.8196C30.3057 50.0285 31.0376 52.2326 32.0446 54.3567C33.1855 51.4451 35.392 47.7862 36.842 44.8582C38.4514 41.6085 40.129 38.3812 41.7078 35.119C44.1207 30.1333 54.0206 8.88882 56.8665 6.5042C57.341 6.10649 57.7916 6.13507 58.3729 6.22164C58.4497 6.23304 58.5256 6.26664 58.6028 6.25814C58.711 6.24614 62.4017 2.63369 64.0645 2Z" fill="#515150"/>
<path d="M71.7036 28.0612C71.9658 28.0433 72.2295 28.0137 72.4858 28.0883C73.0762 28.26 73.397 28.6566 73.6856 29.1745C73.9375 29.6302 74.207 30.2206 74.689 30.4705C74.856 30.338 75.0522 30.1504 75.2441 30.0603C75.6499 29.8679 76.0454 30.0071 76.4292 30.1849C78.4609 31.1242 80.8648 32.7557 81.6484 34.9311C82.1406 36.2987 82.3648 39.3748 82.1494 40.8179C81.9649 42.055 81.4346 43.3347 81.1094 44.5486C80.3623 47.342 79.6079 50.1573 78.915 52.964C76.8071 61.3778 74.6187 69.7707 72.3482 78.142C71.8032 80.1934 71.3726 82.2736 70.8218 84.3225C69.8125 88.0742 68.6655 91.7993 67.6943 95.5589C67.2256 97.3726 67.0044 99.2473 66.6221 101.081C66.0947 103.605 65.4224 106.104 64.8218 108.612C64.3721 110.491 64.0571 112.375 63.209 114.124C63.0874 114.347 62.938 114.66 62.7461 114.83C62.4048 115.136 61.9434 115.219 61.501 115.256C58.624 115.496 57.5239 112.806 55.8101 112.937C55.5566 112.956 55.3047 112.97 55.0498 112.959C54.6309 112.941 54.2485 112.774 53.9717 112.45C52.8628 111.15 53.2495 108.188 53.3403 106.546C53.5923 102.04 54.5591 97.4823 55.2022 93.0156C56.5806 83.4449 58.2022 73.544 60.0874 64.0495C61.2988 57.9466 62.771 51.9002 64.022 45.8084C64.4146 43.895 66.8447 30.7991 67.6445 30.1511C67.687 30.1165 67.7324 30.0858 67.7764 30.0528C68.9292 29.1858 70.3897 28.638 71.7036 28.0612Z" fill="#515150"/>
<path d="M54.061 117.604C55.0058 117.536 56.1836 117.768 57.0962 118.021C59.4751 118.68 61.3545 120.514 62.5351 122.628C63.4184 124.21 64.123 126.18 63.5913 127.982C62.9936 130.005 60.4052 135.728 59.1455 137.303C58.791 137.745 58.2636 138.01 57.7744 138.279C57.6221 138.809 57.4902 139.175 57.1474 139.612C57.0376 139.65 56.9262 139.683 56.8135 139.713C55.2724 140.099 52.5932 138.692 51.2763 137.846C50.8252 137.558 50.0781 136.946 49.9067 136.417C49.8261 136.166 49.9007 135.821 49.8144 135.571C49.4365 134.483 47.8823 134.367 47.4428 131.886C46.8745 128.684 47.6992 123.639 49.5493 120.938C50.6933 119.266 52.0102 117.989 54.061 117.604Z" fill="#515150"/>
<path d="M62.0645 0C64.4594 0.80874 62.5408 4.62024 63.3302 6.03279C63.5357 5.81819 63.7207 5.64256 63.9691 5.47893C64.303 5.67478 64.3755 5.87475 64.4854 6.24477C65.2775 8.91386 66.2914 13.1279 65.3429 15.7775C63.8373 19.9834 61.3519 24.0237 59.3979 28.0413L48.8019 49.7566C47.8692 51.625 46.8482 53.4505 45.9513 55.3363C45.1102 57.1053 44.3915 58.9294 43.5522 60.6971C42.5723 62.7604 41.4693 64.7205 40.5993 66.8405C39.373 69.8287 38.4047 72.8312 37.3122 75.8635C36.7257 77.4924 36.0437 79.0832 35.4753 80.7194C33.4758 86.4748 31.6556 92.3078 29.7418 98.0939C29.2215 99.6672 28.5153 101.175 27.9696 102.74L22.8384 117.786C22.2415 119.531 21.7957 121.324 21.1865 123.067C20.0378 126.352 18.6891 129.609 17.3896 132.839C16.7574 134.409 16.2025 136.256 15.3437 137.712C15.1253 138.083 14.8971 138.349 14.4815 138.467C14.1142 137.591 15.2243 135.024 15.4669 134.015C14.7684 135.329 14.3633 136.785 13.7994 138.161C13.2431 139.517 12.5176 140.827 11.8392 142.124C11.429 142.91 10.9974 143.847 10.3809 144.496C10.0501 144.845 9.49785 145.088 9.07544 145.312C9.36845 144.391 9.63633 143.503 9.78778 142.546C9.08972 144.136 8.25044 146.802 6.80798 147.824L6.59003 147.745C6.41793 147.477 6.41376 147.33 6.43369 147.026C6.45349 146.724 6.4512 146.459 6.4151 146.156C6.26645 146.204 6.11711 146.251 5.96762 146.296C5.86205 146.179 5.8274 146.151 5.74124 145.995C4.50529 143.736 4.6367 139.334 4.96878 136.835C5.16336 135.37 5.54493 133.91 5.85553 132.465L5.76282 132.434L5.82053 132.292C4.8109 133.63 5.00597 135.951 4.37534 137.462C4.11117 137.49 4.16647 137.535 3.96451 137.378C2.96146 136.599 3.49164 134.75 3.26056 133.66C3.13325 134.075 3.01808 134.734 2.716 135.032C2.45975 134.106 1.99611 132.908 2.09448 131.948C2.41405 128.831 3.98844 124.013 4.81973 120.847C5.34119 118.863 5.79046 116.857 6.33408 114.877C6.7192 113.475 7.21741 112.105 7.58463 110.697C8.73667 106.284 9.80283 101.952 11.2639 97.6222C12.4684 93.9659 13.3088 90.1837 14.4886 86.5231C15.0139 84.8927 15.6823 83.3092 16.2003 81.6744C16.7433 79.9606 17.1197 78.1954 17.6926 76.4918C18.6988 73.4991 19.8826 70.5601 20.5858 67.4753C19.2703 63.6005 17.5716 59.8259 16.1399 55.9908L6.49188 29.6788C5.35472 26.6079 4.26205 23.5132 3.07721 20.4612C2.22652 18.2698 1.15315 16.0436 0.590546 13.7633C0.229466 12.2998 0.12528 10.7722 0 9.27385C0.69085 10.5215 1.18853 11.9208 1.74173 13.2352C1.63157 12.7 1.52022 12.1636 1.4313 11.6243C1.3601 11.1927 1.31381 10.72 1.57809 10.345C2.43312 10.7743 2.97858 12.5289 3.38651 13.4126C3.09675 12.1354 2.78791 10.8412 2.66779 9.53459C2.57369 8.5111 2.53088 7.35052 3.22324 6.51951C3.48209 6.4073 3.53032 6.33889 3.82184 6.39427C4.82267 6.58411 5.87576 8.12397 6.42526 8.93461C6.15648 7.19818 5.49406 5.04677 5.92197 3.29818C6.01127 2.93343 6.15791 2.81172 6.45615 2.60971C6.75669 2.57451 6.98733 2.57119 7.27069 2.67959C8.33696 3.08755 9.10344 4.12745 9.85754 4.94366C10.9984 6.17852 12.3211 7.42568 13.2341 8.84175C14.9887 11.5633 16.2023 14.8674 17.4256 17.856C19.78 23.6672 21.9564 29.5491 23.9515 35.4932C24.4551 36.9825 24.8619 38.5023 25.3716 39.992C26.0431 41.9548 26.8196 43.8689 27.5166 45.8196C28.3057 48.0285 29.0376 50.2326 30.0446 52.3567C31.1855 49.4451 33.392 45.7862 34.842 42.8582C36.4514 39.6086 38.129 36.3812 39.7078 33.119C42.1207 28.1333 52.0206 6.88882 54.8665 4.5042C55.341 4.10649 55.7916 4.13507 56.3729 4.22164C56.4497 4.23304 56.5256 4.26664 56.6028 4.25814C56.711 4.24614 60.4017 0.63369 62.0645 0Z" fill="#DA3119"/>
<path d="M69.7036 26.0612C69.9658 26.0433 70.2295 26.0137 70.4858 26.0883C71.0762 26.26 71.397 26.6566 71.6856 27.1745C71.9375 27.6302 72.207 28.2206 72.689 28.4705C72.856 28.338 73.0522 28.1504 73.2441 28.0603C73.6499 27.8679 74.0454 28.0071 74.4292 28.1849C76.4609 29.1242 78.8648 30.7557 79.6484 32.9311C80.1406 34.2987 80.3648 37.3748 80.1494 38.8179C79.9649 40.055 79.4346 41.3347 79.1094 42.5486C78.3623 45.342 77.6079 48.1573 76.915 50.964C74.8071 59.3778 72.6187 67.7707 70.3482 76.142C69.8032 78.1934 69.3726 80.2736 68.8218 82.3225C67.8125 86.0742 66.6655 89.7993 65.6943 93.5589C65.2256 95.3726 65.0044 97.2473 64.6221 99.0806C64.0947 101.605 63.4224 104.104 62.8218 106.612C62.3721 108.491 62.0571 110.375 61.209 112.124C61.0874 112.347 60.938 112.66 60.7461 112.83C60.4048 113.136 59.9434 113.219 59.501 113.256C56.624 113.496 55.5239 110.806 53.8101 110.937C53.5566 110.956 53.3047 110.97 53.0498 110.959C52.6309 110.941 52.2485 110.774 51.9717 110.45C50.8628 109.15 51.2495 106.188 51.3403 104.546C51.5923 100.04 52.5591 95.4823 53.2022 91.0156C54.5806 81.4449 56.2022 71.544 58.0874 62.0495C59.2988 55.9466 60.771 49.9002 62.022 43.8084C62.4146 41.895 64.8447 28.7991 65.6445 28.1511C65.687 28.1165 65.7324 28.0858 65.7764 28.0528C66.9292 27.1858 68.3897 26.638 69.7036 26.0612Z" fill="#DA3119"/>
<path d="M52.061 115.604C53.0058 115.536 54.1836 115.768 55.0962 116.021C57.4751 116.68 59.3545 118.514 60.5351 120.628C61.4184 122.21 62.123 124.18 61.5913 125.982C60.9936 128.005 58.4052 133.728 57.1455 135.303C56.791 135.745 56.2636 136.01 55.7744 136.279C55.6221 136.809 55.4902 137.175 55.1474 137.612C55.0376 137.65 54.9262 137.683 54.8135 137.713C53.2724 138.099 50.5932 136.692 49.2763 135.846C48.8252 135.558 48.0781 134.946 47.9067 134.417C47.8261 134.166 47.9007 133.821 47.8144 133.571C47.4365 132.483 45.8823 132.367 45.4428 129.886C44.8745 126.684 45.6992 121.639 47.5493 118.938C48.6933 117.266 50.0102 115.989 52.061 115.604Z" fill="#DA3119"/>
</svg>
