<?xml version="1.0" encoding="UTF-8" standalone="no"?>
<svg
   width="297.09946"
   height="170.1731"
   viewBox="0 0 297.09946 170.1731"
   fill="none"
   version="1.1"
   id="svg12"
   sodipodi:docname="logo-full.svg"
   inkscape:version="1.4 (86a8ad7, 2024-10-11)"
   xmlns:inkscape="http://www.inkscape.org/namespaces/inkscape"
   xmlns:sodipodi="http://sodipodi.sourceforge.net/DTD/sodipodi-0.dtd"
   xmlns="http://www.w3.org/2000/svg"
   xmlns:svg="http://www.w3.org/2000/svg">
  <defs
     id="defs12" />
  <sodipodi:namedview
     id="namedview12"
     pagecolor="#ffffff"
     bordercolor="#000000"
     borderopacity="0.25"
     inkscape:showpageshadow="2"
     inkscape:pageopacity="0.0"
     inkscape:pagecheckerboard="0"
     inkscape:deskcolor="#d1d1d1"
     inkscape:zoom="4.5739645"
     inkscape:cx="44.272316"
     inkscape:cy="84.5"
     inkscape:window-width="1920"
     inkscape:window-height="991"
     inkscape:window-x="-9"
     inkscape:window-y="-9"
     inkscape:window-maximized="1"
     inkscape:current-layer="layer2" />
  <g
     inkscape:groupmode="layer"
     id="layer2"
     inkscape:label="shadow"
     style="fill:#333333"
     transform="translate(1.3117723,1.3117723)">
    <path
       fill-rule="evenodd"
       clip-rule="evenodd"
       d="m 184.519,32.1631 c 1.697,0.3572 2.779,1.5674 3.967,2.7363 4.982,0.6285 10.314,2.3821 14.648,4.9229 3.167,1.8565 6.85,4.7236 8.643,7.9961 1.069,1.9506 1.658,4.239 2.203,6.3867 2.834,11.1542 -0.91,22.3311 -6.662,31.9052 -7.03,11.7009 -19.445,19.0867 -31.837,23.9507 -2.77,1.088 -5.573,2.26 -8.467,2.97 -2.174,0.533 -3.855,0.517 -6.002,-0.19 -0.426,-0.141 -0.992,-0.286 -1.348,-0.56 -0.351,-0.268 -0.356,-0.35 -0.431,-0.761 0.336,-0.937 3.687,-3.282 4.728,-4.198 -2.67,0.128 -5.364,0.279 -8.005,0.703 -5.82,0.938 -11.537,2.869 -17.149,4.626 -3.268,1.023 -6.665,1.94 -9.827,3.257 -0.791,-0.117 -1.557,-0.272 -2.335,-0.454 -0.86,-1.898 -1.854,-3.573 -3.071,-5.258 0.021,1.553 0.266,3.774 -0.32,5.211 -0.123,0.303 -0.129,0.331 -0.438,0.463 -0.857,-0.433 -1.171,-1.862 -1.484,-2.71 0.199,1.531 0.375,3.038 0.202,4.579 -0.095,0.844 -0.322,1.985 -1.104,2.477 -0.385,0.243 -0.84,0.24 -1.252,0.079 -1.78,-0.693 -2.931,-3.709 -3.72,-5.335 -0.033,0.513 -0.014,1.155 -0.309,1.593 -0.157,0.232 -0.113,0.158 -0.427,0.197 -0.148,-0.091 -0.276,-0.171 -0.397,-0.297 -3.355,-3.502 -3.096,-11.417 -3.427,-15.917 -0.27,-3.6664 -0.618,-7.1826 -0.648,-10.8719 -3.807,1.2365 -7.547,2.6806 -11.3765,3.8671 -1.4492,3.5551 -2.1411,7.5998 -3.2051,11.3088 -0.6405,2.231 -3.3402,12.019 -5.122,13.006 -0.3882,0.026 -0.7045,0 -1.0772,-0.124 -1.7537,-0.584 -3.8342,-5.985 -4.7353,-7.708 0.0421,0.525 0.0656,1.055 0.0713,1.582 0.0172,1.984 -0.2204,11.858 -1.3692,13.017 -0.6976,-0.546 -0.9443,-3.1 -1.1348,-4.029 -0.3783,2.536 0.2852,6.697 -0.6757,9.196 -0.113,0.294 -0.1771,0.313 -0.4463,0.429 l -0.5938,-0.273 c -0.1435,0.193 -0.2435,0.31 -0.4336,0.463 -1.2827,-0.933 -2.6031,-5.189 -3.0244,-6.78 -0.2928,-1.107 -0.4257,-2.265 -0.8291,-3.337 -0.0164,-0.044 -0.0336,-0.088 -0.0508,-0.131 0.0415,1.112 0.314,2.228 -0.0078,3.323 l -0.2412,0.082 c -0.1449,-0.097 -0.272,-0.184 -0.3887,-0.314 -0.7791,-0.874 -1.1996,-2.172 -1.6054,-3.259 -0.497,-1.33 -1.089,-2.678 -1.3867,-4.066 -1.0865,-5.074 -0.8436,-14.866 -0.6514,-20.3194 -1.9231,0.6416 -3.8409,1.2999 -5.7881,1.8653 -2.5771,0.747 -5.2289,1.3956 -7.7031,2.4443 -1.9566,4.2528 -3.3459,8.9008 -4.9532,13.3058 -1.4231,3.901 -3.0864,7.69 -4.6298,11.538 -0.5322,1.326 -2.3609,6.67 -3.3418,7.191 -0.381,-0.416 -0.4459,-1.053 -0.6758,-1.572 -0.3769,1.598 -0.7854,3.358 -1.7412,4.723 -0.2703,0.386 -0.4558,0.554 -0.9219,0.626 -0.3664,-0.305 -0.3625,-0.663 -0.4785,-1.116 l -0.2266,-0.124 -1.0664,1.219 -0.1318,-0.252 c -0.8804,-1.663 -1.3562,-7.156 -2.0098,-7.85 -0.2542,0.227 -0.1165,0.145 -0.4101,0.26 -0.1178,-0.128 -0.1536,-0.155 -0.2471,-0.331 -1.0177,-1.914 -0.1269,-3.967 0.5449,-5.819 2.406,-7.031 4.9468,-14.018 7.6211,-20.952 -0.7361,-0.483 -1.1851,-0.9963 -1.6943,-1.6993 0.4145,-0.4305 0.8015,-0.6969 1.33,-0.9737 -0.9558,-0.4057 -2.1952,-0.9908 -2.6513,-2 -0.2088,-0.4627 -0.1902,-0.9708 0.0224,-1.4248 0.7162,-1.5292 5.9495,-3.182 7.5577,-3.8418 2.3655,-5.0777 4.3995,-10.2641 6.6142,-15.4043 1.8047,-4.1884 3.7769,-8.3046 5.5986,-12.4863 2.043,-4.6895 4.8605,-11.9028 7.6407,-15.9619 0.151,-0.2204 0.3273,-0.5175 0.5224,-0.6924 0.4403,-0.3939 1.2291,-0.4193 1.7373,-0.7676 0.7738,-0.5303 1.3877,-1.7383 2.4131,-1.8251 1.3216,-0.1111 3.7801,1.398 4.8389,2.1513 0.4802,0.3418 1.0299,0.7385 1.2119,1.3281 0.5711,1.8536 0.4842,4.1319 0.7022,6.0596 0.7666,6.779 1.2394,13.543 1.7724,20.3428 0.2151,2.7416 0.1392,5.6772 0.5977,8.376 0.0089,0.0547 0.0194,0.1093 0.0293,0.164 1.8915,-0.2586 3.8302,-0.481 5.7383,-0.5517 1.2037,-3.1868 2.0695,-6.5369 3.1767,-9.7666 1.9176,-5.5937 4.056,-11.0731 6.2188,-16.5743 1.2989,-3.3029 2.4999,-6.7601 4.3949,-9.7832 1.279,-2.0404 1.639,-0.5108 3.112,-1.2607 1.874,-0.955 2.424,-3.6962 4.741,-4.1435 1.036,-0.2 2.074,0.17 2.927,0.747 1.37,0.9269 2.677,2.5868 3.292,4.124 1.12,2.8004 1.437,6.1414 1.868,9.1114 0.673,4.4069 1.277,8.8243 1.813,13.25 0.372,3.1264 0.532,6.2595 1.167,9.3506 0.586,-0.053 1.192,-0.1267 1.781,-0.1133 1.061,0.0243 2.335,0.5288 3.036,1.3437 0.454,0.5281 0.643,1.1701 0.608,1.8565 -0.245,0.1881 -0.375,0.283 -0.538,0.5517 0.289,0.2928 0.745,0.6815 0.905,1.0537 0.14,0.3307 0.093,0.7931 -0.04,1.1211 -0.714,1.7651 -3.839,2.8332 -5.475,3.5782 0.229,3.3277 0.286,6.688 0.412,10.0234 0.116,3.0674 0.325,6.1544 0.2,9.2244 1.172,-3.14 2.805,-5.8125 4.331,-8.7713 1.603,-3.1068 3.083,-6.2856 4.746,-9.3603 1.952,-3.6079 4.107,-7.1082 6.101,-10.6924 1.636,-2.9394 3.1,-5.9908 4.724,-8.9444 2.217,-4.0338 4.627,-7.9267 7.128,-11.7871 1.175,-1.8106 2.289,-3.8968 3.894,-5.3525 -3.874,1.1153 -7.938,1.7589 -11.888,2.5723 -2.795,0.5758 -5.705,1.4044 -8.537,1.6933 -0.785,0.0801 -1.668,0.1119 -2.42,-0.1621 -0.427,-0.1557 -0.671,-0.3664 -0.874,-0.7803 0.091,-0.4658 0.332,-0.6309 0.649,-0.9765 -1.002,-0.2049 -1.999,-0.435 -2.893,-0.9512 -0.539,-0.3112 -1.098,-0.7723 -1.213,-1.4209 -0.132,-0.7501 0.277,-1.3026 0.719,-1.8564 l 0.118,-0.1446 c -0.75,-1.2084 -2.825,-1.669 -3.224,-3.2002 -0.086,-0.3284 -0.034,-0.6421 0.164,-0.9179 0.574,-0.798 4.547,-1.6418 5.573,-1.9414 8.728,-2.6331 17.574,-4.8626 26.508,-6.6807 3.117,-0.6555 15.216,-2.1684 17.543,-0.6484 l -0.061,0.1855 c -0.252,0.1039 -0.504,0.2098 -0.756,0.3184 l 0.077,0.1093 c 2.389,-0.3368 6.945,-0.6343 8.934,-1.8017 0.66,-0.3879 1.236,-1.0335 1.788,-1.5664 z M 84.3764,91.3682 c 0.1235,1.9173 0.227,3.841 0.2159,5.7626 -0.0062,1.0649 -0.1693,2.2297 -0.0723,3.2812 0.4466,-1.2875 2.6647,-8.93 2.4394,-9.6864 l -0.039,-0.0303 z M 172.296,45.5713 c 0.217,1.0753 -0.025,1.6053 -0.515,2.5527 -1.275,2.4666 -2.798,4.7818 -4.251,7.1436 -3.131,5.087 -6.416,10.115 -9.454,15.2539 -1.729,2.9247 -3.254,5.9723 -4.892,8.9482 -3.249,5.9591 -6.662,11.8273 -10.235,17.5986 1.21,-0.2782 2.429,-0.4912 3.652,-0.705 4.61,-1.0898 11.887,-2.364 16.462,-1.0401 1.03,-7.3086 2.793,-14.4487 4.579,-21.5976 0.366,-1.4638 0.628,-2.9529 0.995,-4.416 0.523,-2.0775 1.201,-4.1263 1.793,-6.1866 1.601,-5.5832 3.265,-11.2763 5.579,-16.6123 -1.281,-0.197 -2.48,-0.5465 -3.713,-0.9394 z m 16.211,5.2226 c -0.543,5.0336 -2.208,9.6809 -3.566,14.5205 -0.995,3.5442 -1.858,7.1612 -2.775,10.7286 -0.877,3.5595 -1.718,7.128 -2.527,10.7041 -0.376,1.7112 -0.595,3.4813 -1.09,5.1621 2.328,-1.3915 4.736,-2.729 6.856,-4.4278 1.526,-1.3776 3.219,-2.7156 4.604,-4.2265 5.589,-6.0902 9.28,-14.3713 9.671,-22.669 0.098,-2.0809 0.14,-4.415 -1.358,-6.0449 -2.361,-2.5695 -6.497,-3.4337 -9.815,-3.7471 z M 71.6421,69.2285 c -0.5995,1.3018 -7.4205,17.114 -7.3243,17.5371 l 0.1153,0.0928 c 2.4539,-0.7003 4.8914,-1.5166 7.3515,-2.1807 -0.0685,-1.6669 0.1044,-15.1493 -0.1425,-15.4492 z m 36.7489,-3.2266 c -1.201,2.6553 -2.071,5.3755 -3.086,8.1006 -0.827,2.2197 -1.8,4.4061 -2.512,6.6651 l 0.068,0.1552 c 0.323,-0.0316 0.611,-0.0766 0.924,-0.165 1.956,-0.6446 3.926,-1.3789 5.911,-1.9248 -0.296,-1.8714 -0.811,-12.273 -1.305,-12.8311 z"
       fill="#515150"
       id="path1"
       style="fill:#333333" />
    <path
       d="m 213.894,115.908 c 0.242,-0.018 0.481,-0.032 0.722,-0.037 12.69,-0.202 25.382,0.268 38.02,1.405 3.374,0.311 7.001,0.394 10.297,1.154 0.972,0.225 2.474,0.649 3.154,1.405 0.253,0.283 0.331,0.472 0.322,0.842 -1.19,1.514 -3.938,0.362 -5.351,1.14 0.183,0.224 0.316,0.295 0.338,0.59 -2.185,0.481 -8.451,-0.266 -9.659,0.163 0.964,0.258 2.014,0.283 3.006,0.381 2.206,0.218 4.227,0.521 6.304,1.326 -3.049,1.006 -6.048,0.991 -9.181,1.394 -1.316,0.17 -2.613,0.466 -3.929,0.634 -1.557,0.2 -3.139,0.254 -4.703,0.408 -4.153,0.41 -8.293,0.811 -12.46,1.063 -3.868,0.233 -7.807,0.259 -11.685,0.456 -2.111,0.107 -4.222,0.382 -6.334,0.521 -7.227,0.457 -14.447,1.007 -21.658,1.648 -5.805,0.535 -11.587,1.529 -17.37,2.274 -14.524,1.795 -28.961,4.246 -43.264,7.346 -1.743,0.36 -3.512,0.59 -5.251,0.965 -9.69,2.052 -19.298,4.471 -28.8041,7.251 -9.304,2.726 -18.3905,5.993 -27.5025,9.292 -5.0355,1.907 -10.0254,3.933 -14.965,6.076 -3.7886,1.643 -8.7843,4.358 -12.6515,5.157 -1.0702,0.223 -2.2956,0.085 -3.2074,-0.562 -0.5344,-0.381 -0.6835,-0.831 -0.7801,-1.458 0.155,-0.364 0.2433,-0.432 0.586,-0.647 0.7733,-0.485 1.7045,-0.813 2.5356,-1.192 1.5362,-0.701 3.0185,-1.452 4.4091,-2.413 -1.3981,0.149 -2.8244,-0.021 -4.2205,0.126 -2.3195,0.245 -4.7986,1.724 -7.1463,1.23 -0.4085,-0.086 -2.7135,-2.742 -2.9944,-3.191 -0.1934,-0.311 -0.4707,-0.914 -0.3298,-1.281 0.5038,-1.309 8.2735,-4.359 9.9359,-4.939 -0.7887,0.036 -1.4275,0.445 -2.2293,0.373 l -0.1062,-0.211 0.3832,-0.943 c -0.1226,-0.42 -0.4059,-0.618 -0.722,-0.896 l -0.149,-0.131 c -0.004,-0.288 -0.0111,-0.351 0.1891,-0.581 2.7338,-3.144 15.9097,-7.689 20.4432,-9.32 12.2036,-4.363 24.6,-8.168 37.1505,-11.401 7.7735,-1.921 15.6935,-3.436 23.5425,-5.012 8.445,-1.735 16.939,-3.221 25.471,-4.456 3.96,-0.61 7.925,-1.279 11.902,-1.762 2.429,-0.296 4.874,-0.408 7.306,-0.674 4.482,-0.49 8.953,-1.105 13.447,-1.49 8.516,-0.73 17.127,-1.244 25.665,-1.617 3.843,-0.17 7.685,-0.161 11.524,-0.406 z"
       fill="#515150"
       id="path2"
       style="fill:#333333" />
    <path
       d="m 64.0645,18.7016 c 2.3949,0.8088 0.4763,4.6203 1.2657,6.0328 0.2055,-0.2146 0.3905,-0.3902 0.6389,-0.5538 0.3339,0.1958 0.4064,0.3958 0.5163,0.7658 0.7921,2.6691 1.806,6.8831 0.8575,9.5328 -1.5056,4.2058 -3.991,8.2461 -5.945,12.2638 l -10.596,21.7152 c -0.9327,1.8685 -1.9537,3.6939 -2.8506,5.5798 -0.8411,1.7689 -1.5598,3.5931 -2.3991,5.3607 -0.9799,2.0634 -2.0829,4.0235 -2.9529,6.1434 -1.2263,2.9883 -2.1946,5.9908 -3.2871,9.023 -0.5865,1.629 -1.2685,3.2198 -1.8369,4.856 -1.9995,5.7549 -3.8197,11.5879 -5.7335,17.3749 -0.5203,1.573 -1.2265,3.08 -1.7722,4.646 l -5.1312,15.046 c -0.5969,1.744 -1.0427,3.537 -1.6519,5.28 -1.1487,3.286 -2.4974,6.542 -3.7969,9.772 -0.6322,1.571 -1.1871,3.418 -2.0459,4.874 -0.2184,0.37 -0.4466,0.637 -0.8622,0.754 -0.3673,-0.876 0.7428,-3.442 0.9854,-4.452 -0.6985,1.314 -1.1036,2.771 -1.6675,4.146 -0.5563,1.356 -1.2818,2.666 -1.9602,3.964 -0.4102,0.785 -0.8418,1.723 -1.4583,2.371 -0.3308,0.349 -0.8831,0.592 -1.3055,0.816 0.293,-0.921 0.5609,-1.809 0.7124,-2.765 -0.6981,1.589 -1.5374,4.255 -2.97982,5.278 l -0.21795,-0.08 c -0.1721,-0.268 -0.17627,-0.414 -0.15634,-0.719 0.0198,-0.302 0.01751,-0.567 -0.01859,-0.87 -0.14865,0.048 -0.29799,0.095 -0.44748,0.141 -0.10557,-0.117 -0.14022,-0.145 -0.22638,-0.302 -1.23595,-2.259 -1.10454,-6.661 -0.77246,-9.16 0.19458,-1.465 0.57615,-2.925 0.88675,-4.369 l -0.09271,-0.031 0.05771,-0.142 c -1.00963,1.337 -0.81456,3.659 -1.44519,5.169 -0.26417,0.028 -0.20887,0.073 -0.41083,-0.083 -1.00305,-0.78 -0.47287,-2.628 -0.70395,-3.718 -0.12731,0.415 -0.24248,1.074 -0.54456,1.371 -0.25625,-0.926 -0.71989,-2.124 -0.62152,-3.083 0.31957,-3.118 1.89396,-7.936 2.72525,-11.101 0.52146,-1.985 0.97073,-3.99 1.51435,-5.971 0.38512,-1.402 0.88333,-2.771 1.25055,-4.179 1.15207,-4.414 2.21817,-8.745 3.67927,-13.075 1.2045,-3.656 2.0449,-7.439 3.2247,-11.099 0.5253,-1.631 1.1937,-3.214 1.7117,-4.849 0.543,-1.7138 0.9194,-3.4789 1.4923,-5.1825 1.0062,-2.9927 2.19,-5.9317 2.8932,-9.0165 -1.3155,-3.8748 -3.0142,-7.6495 -4.4459,-11.4846 L 8.49188,48.3805 C 7.35472,45.3096 6.26205,42.2148 5.07721,39.1628 4.22652,36.9714 3.15315,34.7453 2.59055,32.4649 2.22947,31.0014 2.12528,29.4739 2,27.9755 2.69085,29.2231 3.18853,30.6225 3.74173,31.9369 3.63157,31.4016 3.52022,30.8652 3.4313,30.326 3.3601,29.8943 3.31381,29.4216 3.57809,29.0466 c 0.85503,0.4293 1.40049,2.1839 1.80842,3.0677 -0.28976,-1.2772 -0.5986,-2.5714 -0.71872,-3.8781 -0.0941,-1.0235 -0.13691,-2.184 0.55545,-3.015 0.25885,-0.1123 0.30708,-0.1807 0.5986,-0.1253 1.00083,0.1899 2.05392,1.7297 2.60342,2.5404 -0.26878,-1.7365 -0.9312,-3.8879 -0.50329,-5.6365 0.0893,-0.3647 0.23594,-0.4865 0.53418,-0.6885 0.30054,-0.0352 0.53118,-0.0385 0.81454,0.0699 1.06631,0.408 1.83271,1.4479 2.58681,2.2641 1.1409,1.2349 2.4636,2.482 3.3766,3.8981 1.7546,2.7215 2.9682,6.0256 4.1915,9.0142 2.3544,5.8112 4.5308,11.6931 6.5259,17.6373 0.5036,1.4893 0.9104,3.0091 1.4201,4.4988 0.6715,1.9628 1.448,3.8769 2.145,5.8276 0.7891,2.2089 1.521,4.413 2.528,6.537 1.1409,-2.9115 3.3474,-6.5704 4.7974,-9.4985 1.6094,-3.2496 3.287,-6.4769 4.8658,-9.7391 2.4129,-4.9858 12.3128,-26.2302 15.1587,-28.6149 0.4745,-0.3977 0.9251,-0.3691 1.5064,-0.2825 0.0768,0.0114 0.1527,0.045 0.2299,0.0365 0.1082,-0.012 3.7989,-3.6245 5.4617,-4.2582 z"
       fill="#515150"
       id="path3"
       style="fill:#333333" />
    <path
       fill-rule="evenodd"
       clip-rule="evenodd"
       d="m 240.801,25.0107 c 1.322,-0.0688 2.556,0.5993 3.644,1.293 1.6,1.0199 4.31,2.5023 5.277,4.1514 1.692,2.8843 3.348,24.6666 3.732,29.3408 0.218,2.6518 0.201,5.577 0.794,8.166 0.015,0.0601 0.028,0.1199 0.043,0.1797 1.777,-0.3886 4.293,-0.9488 5.909,0.1348 0.358,0.24 0.609,0.5524 0.685,0.9882 0.152,0.8697 -0.26,1.3977 -0.743,2.0674 0.814,0.3552 1.997,0.851 2.296,1.7715 0.102,0.3181 0.049,0.6451 -0.1,0.9385 -0.905,1.7862 -6.024,2.9469 -7.93,3.6103 0.375,3.9863 0.415,8.0498 0.586,12.0528 0.15,3.4667 0.439,6.9385 0.547,10.4039 0.07,2.244 0.13,7.387 -1.471,9.095 l -0.206,-0.045 c -0.901,-0.999 -0.934,-2.806 -1.362,-4.072 l -0.064,-0.182 c -0.121,2.398 -0.223,5.035 -0.916,7.34 -0.244,0.817 -0.525,1.629 -1.307,2.054 -0.286,-0.006 -0.342,0.021 -0.606,-0.13 -0.55,-0.312 -1.058,-0.84 -1.504,-1.285 -2.632,-2.628 -2.226,-5.606 -3.061,-8.937 -0.018,0.645 0.076,1.575 -0.354,2.081 -0.15,-0.049 -0.171,-0.043 -0.316,-0.159 -0.709,-0.57 -1.175,-2.446 -1.339,-3.334 -0.249,-1.349 -0.258,-2.7469 -0.381,-4.1122 -0.342,-3.7936 -0.617,-7.6068 -0.871,-11.4091 -0.116,-1.731 -0.132,-3.5366 -0.448,-5.2412 -0.012,-0.0612 -0.023,-0.1226 -0.036,-0.1836 -3.148,1.0327 -6.242,2.2235 -9.406,3.2119 -2.105,0.6499 -4.209,1.3615 -6.239,2.2177 l -5.012,13.7945 c -0.929,2.606 -1.738,5.326 -2.857,7.854 -0.606,1.371 -2.057,4.409 -3.659,4.802 -0.414,0.102 -0.493,0.055 -0.841,-0.141 -0.507,-0.806 -0.398,-1.758 -0.378,-2.671 -0.89,1.346 -1.779,2.431 -3.107,3.371 -1.263,-0.895 -1.762,-1.84 -2.221,-3.274 l 0.855,-3.98 c -0.677,1.355 -1.203,2.464 -2.429,3.417 -0.828,-1.205 -1.296,-2.341 -1.739,-3.733 0.616,-3.218 2.437,-6.7607 3.621,-9.8574 1.718,-4.4955 3.275,-9.0825 5.08,-13.5371 1.897,-4.6824 4.037,-9.2681 5.949,-13.9473 l 8.383,-20.9092 c 2.294,-5.8211 4.919,-12.6799 7.784,-18.2246 0.302,-0.5832 0.599,-1.228 1.266,-1.4385 0.259,0.0429 0.53,0.0971 0.793,0.1065 1.845,0.0663 2.059,-1.5688 2.633,-2.5742 0.248,-0.4334 0.648,-0.7518 1.026,-1.0655 z m -0.979,25.1563 c -2.486,7.4377 -5.294,14.7938 -8.088,22.1211 l 1.385,-0.2891 c 2.735,-0.6207 5.387,-1.5964 8.101,-2.3008 -0.087,-2.7738 -0.178,-18.1921 -1.398,-19.5312 z"
       fill="#515150"
       id="path4"
       style="fill:#333333" />
    <path
       d="m 285.26,2.02114 c 0.262,-0.0179 0.526,-0.0475 0.782,0.0271 0.59,0.17168 0.911,0.56837 1.2,1.08619 0.252,0.45571 0.521,1.04618 1.003,1.29608 0.167,-0.13257 0.364,-0.32019 0.555,-0.41028 0.406,-0.19233 0.802,-0.0532 1.186,0.12466 2.031,0.93926 4.435,2.57078 5.219,4.74622 0.492,1.36759 0.716,4.44359 0.501,5.88679 -0.185,1.237 -0.715,2.5167 -1.04,3.7306 -0.747,2.7935 -1.502,5.6088 -2.195,8.4154 -2.108,8.4138 -4.296,16.8068 -6.567,25.178 -0.544,2.0514 -0.975,4.1316 -1.526,6.1805 -1.009,3.7518 -2.156,7.4769 -3.127,11.2364 -0.469,1.8138 -0.69,3.6885 -1.073,5.5217 -0.527,2.5248 -1.199,5.0231 -1.8,7.5317 -0.45,1.8785 -0.765,3.7629 -1.613,5.5114 -0.121,0.2234 -0.271,0.5363 -0.463,0.7068 -0.341,0.3057 -0.802,0.3886 -1.245,0.4256 -2.877,0.2396 -3.977,-2.4504 -5.691,-2.3195 -0.253,0.0193 -0.505,0.0333 -0.76,0.0224 -0.419,-0.0176 -0.801,-0.185 -1.078,-0.5093 -1.109,-1.2992 -0.722,-4.2616 -0.631,-5.9031 0.252,-4.5062 1.218,-9.0642 1.861,-13.531 1.379,-9.5707 3,-19.4715 4.886,-28.9661 1.211,-6.1028 2.683,-12.1492 3.934,-18.2411 0.393,-1.9133 2.823,-15.0092 3.623,-15.65725 0.042,-0.0346 0.088,-0.0653 0.132,-0.0983 1.153,-0.86704 2.613,-1.41476 3.927,-1.99161 z"
       fill="#515150"
       id="path5"
       style="fill:#333333" />
    <path
       d="m 267.617,91.5637 c 0.945,-0.0674 2.123,0.164 3.035,0.4175 2.379,0.6591 4.259,2.4931 5.439,4.6069 0.884,1.582 1.588,3.5519 1.057,5.3539 -0.598,2.023 -3.186,7.746 -4.446,9.321 -0.355,0.442 -0.882,0.707 -1.371,0.975 -0.153,0.531 -0.284,0.897 -0.627,1.333 -0.11,0.039 -0.221,0.072 -0.334,0.102 -1.541,0.386 -4.22,-1.021 -5.537,-1.867 -0.452,-0.288 -1.199,-0.901 -1.37,-1.429 -0.081,-0.251 -0.006,-0.597 -0.092,-0.846 -0.378,-1.088 -1.932,-1.204 -2.372,-3.685 -0.568,-3.202 0.256,-8.2472 2.107,-10.9483 1.144,-1.6714 2.461,-2.9488 4.511,-3.334 z"
       fill="#515150"
       id="path6"
       style="fill:#333333" />
  </g>
  <g
     inkscape:groupmode="layer"
     id="layer1"
     inkscape:label="front"
     style="fill:#cc0000">
    <path
       fill-rule="evenodd"
       clip-rule="evenodd"
       d="m 182.518,30.1631 c 1.698,0.3569 2.779,1.5673 3.967,2.7363 4.982,0.6284 10.314,2.382 14.648,4.9229 3.167,1.8565 6.85,4.7233 8.643,7.9961 1.069,1.9506 1.658,4.2388 2.203,6.3867 2.834,11.1543 -0.91,22.331 -6.662,31.9052 -7.03,11.7009 -19.445,19.0867 -31.837,23.9507 -2.77,1.088 -5.572,2.26 -8.467,2.97 -2.173,0.533 -3.854,0.517 -6.001,-0.19 -0.426,-0.141 -0.993,-0.286 -1.349,-0.56 -0.351,-0.268 -0.356,-0.35 -0.431,-0.761 0.335,-0.937 3.687,-3.282 4.728,-4.198 -2.67,0.128 -5.364,0.279 -8.004,0.703 -5.82,0.938 -11.538,2.869 -17.15,4.626 -3.268,1.023 -6.664,1.94 -9.826,3.257 -0.791,-0.117 -1.557,-0.272 -2.335,-0.454 -0.86,-1.898 -1.855,-3.573 -3.072,-5.258 0.021,1.553 0.267,3.774 -0.319,5.211 -0.123,0.303 -0.13,0.331 -0.439,0.463 -0.857,-0.434 -1.171,-1.862 -1.484,-2.71 0.199,1.531 0.376,3.038 0.203,4.579 -0.095,0.844 -0.323,1.985 -1.105,2.477 -0.385,0.243 -0.839,0.24 -1.251,0.079 -1.78,-0.693 -2.932,-3.709 -3.721,-5.335 -0.033,0.513 -0.014,1.155 -0.309,1.593 -0.157,0.232 -0.112,0.158 -0.426,0.197 -0.148,-0.091 -0.276,-0.171 -0.397,-0.297 -3.355,-3.502 -3.097,-11.417 -3.428,-15.9169 -0.27,-3.6665 -0.618,-7.1827 -0.648,-10.872 -3.807,1.2365 -7.546,2.6807 -11.3755,3.8671 -1.4492,3.5552 -2.142,7.5997 -3.206,11.3088 -0.6407,2.232 -3.3393,12.019 -5.1211,13.006 -0.3884,0.026 -0.7044,0 -1.0772,-0.124 -1.7539,-0.583 -3.8352,-5.985 -4.7363,-7.708 0.0422,0.525 0.0666,1.054 0.0723,1.582 0.0172,1.984 -0.2211,11.86 -1.3702,13.017 -0.6974,-0.546 -0.9443,-3.1 -1.1347,-4.029 -0.3784,2.536 0.2852,6.697 -0.6758,9.196 -0.1129,0.294 -0.176,0.313 -0.4453,0.429 l -0.5948,-0.273 c -0.1435,0.193 -0.2432,0.31 -0.4335,0.463 -1.2828,-0.933 -2.6032,-5.189 -3.0245,-6.78 -0.2927,-1.107 -0.4247,-2.265 -0.8281,-3.337 -0.0164,-0.044 -0.0345,-0.088 -0.0517,-0.131 0.0415,1.112 0.3149,2.228 -0.0069,3.323 l -0.2422,0.082 c -0.1449,-0.097 -0.2719,-0.184 -0.3886,-0.314 -0.7791,-0.874 -1.1997,-2.172 -1.6055,-3.259 -0.497,-1.33 -1.089,-2.677 -1.3867,-4.066 -1.0865,-5.074 -0.8436,-14.8657 -0.6514,-20.3194 -1.9231,0.6416 -3.8408,1.2999 -5.7881,1.8653 -2.5769,0.7469 -5.228,1.3957 -7.7021,2.4443 -1.9566,4.2528 -3.3469,8.9008 -4.9541,13.3058 -1.4232,3.901 -3.0855,7.69 -4.6289,11.538 -0.5322,1.326 -2.362,6.671 -3.3428,7.191 -0.381,-0.416 -0.4458,-1.053 -0.6758,-1.572 -0.3769,1.598 -0.7853,3.358 -1.7412,4.723 -0.2703,0.386 -0.4546,0.554 -0.9209,0.626 -0.3663,-0.305 -0.3625,-0.663 -0.4785,-1.116 l -0.2266,-0.124 -1.0664,1.219 -0.1328,-0.252 c -0.8805,-1.664 -1.356,-7.157 -2.0098,-7.85 -0.2541,0.227 -0.1153,0.145 -0.4091,0.26 -0.1179,-0.128 -0.1545,-0.155 -0.2481,-0.331 -1.0176,-1.914 -0.1268,-3.968 0.5449,-5.819 2.406,-7.031 4.9468,-14.018 7.6211,-20.9521 -0.7361,-0.4834 -1.1841,-0.9962 -1.6933,-1.6992 0.4146,-0.4306 0.8013,-0.6969 1.33,-0.9737 -0.9559,-0.4057 -2.1963,-0.9907 -2.6523,-2 -0.2088,-0.4627 -0.1893,-0.9708 0.0234,-1.4248 0.7159,-1.5292 5.9482,-3.1819 7.5567,-3.8418 2.3656,-5.0779 4.4004,-10.2639 6.6152,-15.4043 1.8046,-4.1884 3.7759,-8.3046 5.5977,-12.4863 2.043,-4.6895 4.8613,-11.9028 7.6416,-15.9619 0.151,-0.2204 0.3272,-0.5175 0.5224,-0.6924 0.4402,-0.3939 1.2281,-0.4194 1.7364,-0.7676 0.774,-0.5302 1.3882,-1.7385 2.414,-1.8251 1.3215,-0.1114 3.779,1.398 4.8379,2.1513 0.4804,0.3418 1.0298,0.7384 1.2119,1.3281 0.5712,1.8537 0.4842,4.1319 0.7022,6.0596 0.7666,6.7791 1.2404,13.5429 1.7734,20.3428 0.2151,2.7416 0.1382,5.6771 0.5967,8.376 0.009,0.0548 0.0204,0.1092 0.0303,0.164 1.8916,-0.2587 3.8291,-0.481 5.7373,-0.5517 1.2038,-3.1867 2.0695,-6.5369 3.1767,-9.7666 1.9176,-5.5937 4.056,-11.0732 6.2188,-16.5743 1.2986,-3.303 2.5004,-6.76 4.3959,-9.7832 1.279,-2.0408 1.639,-0.5107 3.112,-1.2607 1.874,-0.9549 2.424,-3.6962 4.741,-4.1435 1.036,-0.1999 2.074,0.17 2.927,0.747 1.37,0.9269 2.677,2.5868 3.292,4.124 1.12,2.8004 1.436,6.1414 1.867,9.1114 0.673,4.407 1.278,8.8242 1.814,13.25 0.372,3.1264 0.532,6.2594 1.167,9.3506 0.586,-0.053 1.191,-0.1266 1.78,-0.1133 1.061,0.0242 2.336,0.5285 3.037,1.3437 0.454,0.5281 0.643,1.17 0.608,1.8565 -0.245,0.1883 -0.376,0.2826 -0.539,0.5517 0.289,0.2929 0.746,0.6813 0.906,1.0537 0.141,0.3308 0.093,0.793 -0.04,1.1211 -0.714,1.7654 -3.84,2.8331 -5.476,3.5782 0.229,3.3278 0.287,6.688 0.413,10.0234 0.116,3.0674 0.325,6.1544 0.2,9.2244 1.172,-3.14 2.804,-5.8125 4.33,-8.7713 1.603,-3.1069 3.084,-6.2855 4.747,-9.3603 1.952,-3.6079 4.106,-7.1081 6.1,-10.6924 1.636,-2.9395 3.1,-5.9906 4.724,-8.9444 2.217,-4.0338 4.627,-7.9266 7.128,-11.7871 1.175,-1.8106 2.289,-3.8967 3.894,-5.3525 -3.874,1.1153 -7.938,1.7589 -11.888,2.5723 -2.795,0.5758 -5.704,1.4045 -8.536,1.6933 -0.786,0.0801 -1.667,0.1121 -2.42,-0.1621 -0.427,-0.1557 -0.671,-0.3662 -0.874,-0.7803 0.091,-0.4658 0.332,-0.6309 0.649,-0.9765 -1.002,-0.2049 -1.999,-0.4349 -2.893,-0.9512 -0.539,-0.3112 -1.099,-0.7721 -1.214,-1.4209 -0.132,-0.7501 0.278,-1.3026 0.72,-1.8564 l 0.117,-0.1446 c -0.75,-1.2084 -2.824,-1.669 -3.223,-3.2002 -0.086,-0.3284 -0.034,-0.6421 0.164,-0.9179 0.574,-0.798 4.546,-1.6417 5.572,-1.9414 8.729,-2.6332 17.575,-4.8625 26.509,-6.6807 3.117,-0.6555 15.216,-2.1687 17.543,-0.6484 l -0.062,0.1855 c -0.252,0.104 -0.504,0.2097 -0.756,0.3184 l 0.077,0.1093 c 2.389,-0.3369 6.946,-0.634 8.935,-1.8017 0.661,-0.3879 1.235,-1.0334 1.787,-1.5664 z M 82.3764,89.3682 c 0.1235,1.9173 0.227,3.841 0.2159,5.7626 -0.0062,1.0649 -0.1693,2.2297 -0.0723,3.2813 0.4466,-1.2876 2.6647,-8.9301 2.4394,-9.6865 l -0.039,-0.0303 z M 170.295,43.5713 c 0.217,1.0755 -0.025,1.6051 -0.515,2.5527 -1.275,2.4666 -2.798,4.7817 -4.251,7.1436 -3.131,5.087 -6.416,10.115 -9.454,15.2539 -1.729,2.9247 -3.253,5.9723 -4.891,8.9482 -3.249,5.9592 -6.662,11.8272 -10.235,17.5986 1.21,-0.2782 2.429,-0.4912 3.652,-0.705 4.61,-1.0899 11.887,-2.3642 16.462,-1.0401 1.03,-7.3085 2.793,-14.4487 4.579,-21.5976 0.366,-1.4638 0.627,-2.9529 0.994,-4.416 0.523,-2.0775 1.201,-4.1262 1.793,-6.1866 1.601,-5.5833 3.266,-11.2762 5.58,-16.6123 -1.281,-0.197 -2.48,-0.5464 -3.714,-0.9394 z m 16.212,5.2226 c -0.543,5.0337 -2.209,9.6808 -3.567,14.5205 -0.995,3.5442 -1.858,7.1611 -2.775,10.7286 -0.877,3.5595 -1.717,7.128 -2.526,10.7041 -0.376,1.7112 -0.595,3.4813 -1.09,5.1621 2.328,-1.3915 4.736,-2.729 6.856,-4.4278 1.526,-1.3775 3.218,-2.7157 4.603,-4.2265 5.589,-6.0903 9.28,-14.3712 9.671,-22.669 0.098,-2.0809 0.141,-4.415 -1.357,-6.0449 -2.361,-2.5695 -6.497,-3.4337 -9.815,-3.7471 z M 69.6411,67.2285 C 69.041,68.5316 62.2205,84.345 62.3178,84.7656 l 0.1143,0.0928 C 64.8863,84.158 67.3243,83.3419 69.7846,82.6777 69.7161,81.0103 69.8884,67.521 69.6411,67.2285 Z M 106.39,64.0019 c -1.201,2.6554 -2.071,5.3754 -3.086,8.1006 -0.827,2.2197 -1.799,4.4061 -2.511,6.6651 l 0.067,0.1552 c 0.323,-0.0316 0.612,-0.0765 0.925,-0.165 1.956,-0.6447 3.926,-1.3789 5.911,-1.9248 -0.296,-1.8717 -0.812,-12.278 -1.306,-12.8311 z"
       fill="#DA3119"
       id="path7"
       style="fill:#cc0000" />
    <path
       d="m 211.894,113.908 c 0.242,-0.018 0.481,-0.032 0.722,-0.037 12.69,-0.202 25.382,0.268 38.02,1.405 3.374,0.311 7.001,0.394 10.297,1.154 0.972,0.225 2.474,0.649 3.154,1.405 0.253,0.283 0.331,0.472 0.322,0.842 -1.19,1.514 -3.938,0.362 -5.351,1.14 0.183,0.224 0.316,0.295 0.338,0.59 -2.185,0.481 -8.451,-0.266 -9.659,0.163 0.964,0.258 2.014,0.283 3.006,0.381 2.206,0.218 4.227,0.521 6.304,1.326 -3.049,1.006 -6.048,0.991 -9.181,1.394 -1.316,0.17 -2.613,0.466 -3.929,0.634 -1.557,0.2 -3.139,0.254 -4.703,0.408 -4.153,0.41 -8.293,0.811 -12.46,1.063 -3.868,0.233 -7.807,0.259 -11.685,0.456 -2.111,0.107 -4.222,0.382 -6.334,0.521 -7.227,0.457 -14.447,1.007 -21.658,1.648 -5.805,0.535 -11.587,1.529 -17.37,2.274 -14.524,1.795 -28.961,4.246 -43.264,7.346 -1.743,0.36 -3.512,0.59 -5.251,0.965 -9.69,2.052 -19.298,4.471 -28.8041,7.251 -9.304,2.726 -18.3905,5.993 -27.5025,9.292 -5.0355,1.907 -10.0254,3.933 -14.965,6.076 -3.7886,1.643 -8.7843,4.358 -12.6515,5.157 -1.0702,0.223 -2.2956,0.085 -3.2074,-0.562 -0.5344,-0.381 -0.6835,-0.831 -0.7801,-1.458 0.155,-0.364 0.2433,-0.432 0.586,-0.647 0.7733,-0.485 1.7045,-0.813 2.5356,-1.192 1.5362,-0.701 3.0185,-1.452 4.4091,-2.413 -1.3981,0.149 -2.8244,-0.021 -4.2205,0.126 -2.3195,0.245 -4.7986,1.724 -7.1463,1.23 -0.4085,-0.086 -2.7135,-2.742 -2.9944,-3.191 -0.1934,-0.311 -0.4707,-0.914 -0.3298,-1.281 0.5038,-1.309 8.2735,-4.359 9.9359,-4.939 -0.7887,0.036 -1.4275,0.445 -2.2293,0.373 l -0.1062,-0.211 0.3832,-0.943 c -0.1226,-0.42 -0.4059,-0.618 -0.722,-0.896 l -0.149,-0.131 c -0.004,-0.288 -0.0111,-0.351 0.1891,-0.581 2.7338,-3.144 15.9097,-7.689 20.4432,-9.32 12.2036,-4.363 24.6,-8.168 37.1505,-11.401 7.7735,-1.921 15.6935,-3.436 23.5425,-5.012 8.445,-1.735 16.939,-3.221 25.471,-4.456 3.96,-0.61 7.925,-1.279 11.902,-1.762 2.429,-0.296 4.874,-0.408 7.306,-0.674 4.482,-0.49 8.953,-1.105 13.447,-1.49 8.516,-0.73 17.127,-1.244 25.665,-1.617 3.843,-0.17 7.685,-0.161 11.524,-0.406 z"
       fill="#DA3119"
       id="path8"
       style="fill:#cc0000" />
    <path
       d="m 62.0645,16.7016 c 2.3949,0.8088 0.4763,4.6203 1.2657,6.0328 0.2055,-0.2146 0.3905,-0.3902 0.6389,-0.5538 0.3339,0.1958 0.4064,0.3958 0.5163,0.7658 0.7921,2.6691 1.806,6.8831 0.8575,9.5328 -1.5056,4.2058 -3.991,8.2461 -5.945,12.2638 l -10.596,21.7152 c -0.9327,1.8685 -1.9537,3.6939 -2.8506,5.5798 -0.8411,1.7689 -1.5598,3.5931 -2.3991,5.3607 -0.9799,2.0634 -2.0829,4.0235 -2.9529,6.1434 -1.2263,2.9883 -2.1946,5.9908 -3.2871,9.023 -0.5865,1.629 -1.2685,3.2198 -1.8369,4.856 -1.9995,5.7549 -3.8197,11.5879 -5.7335,17.3749 -0.5203,1.573 -1.2265,3.08 -1.7722,4.646 l -5.1312,15.046 c -0.5969,1.744 -1.0427,3.537 -1.6519,5.28 -1.1487,3.286 -2.4974,6.542 -3.7969,9.772 -0.6322,1.571 -1.1871,3.418 -2.0459,4.874 -0.2184,0.37 -0.4466,0.637 -0.8622,0.754 -0.3673,-0.876 0.7428,-3.442 0.9854,-4.452 -0.6985,1.314 -1.1036,2.771 -1.6675,4.146 -0.5563,1.356 -1.2818,2.666 -1.9602,3.964 -0.4102,0.785 -0.8418,1.723 -1.4583,2.371 -0.3308,0.349 -0.88305,0.592 -1.30546,0.816 0.29301,-0.921 0.56089,-1.809 0.71234,-2.765 -0.69806,1.589 -1.53734,4.255 -2.9798,5.278 l -0.21795,-0.08 c -0.1721,-0.268 -0.17627,-0.414 -0.15634,-0.719 0.0198,-0.302 0.01751,-0.567 -0.01859,-0.87 -0.14865,0.048 -0.29799,0.095 -0.44748,0.141 -0.10557,-0.117 -0.14022,-0.145 -0.22638,-0.302 -1.23595,-2.259 -1.10454,-6.661 -0.77246,-9.16 0.19458,-1.465 0.57615,-2.925 0.88675,-4.369 l -0.09271,-0.031 0.05771,-0.142 c -1.00963,1.337 -0.81456,3.659 -1.44519,5.169 -0.26417,0.028 -0.20887,0.073 -0.41083,-0.083 -1.00305,-0.78 -0.47287,-2.628 -0.70395,-3.718 -0.12731,0.415 -0.24248,1.074 -0.54456,1.371 -0.25625,-0.926 -0.71989,-2.124 -0.62152,-3.083 0.31957,-3.118 1.89396,-7.936 2.72525,-11.101 0.52146,-1.985 0.97073,-3.99 1.51435,-5.971 0.38512,-1.402 0.88333,-2.771 1.25055,-4.179 1.15204,-4.414 2.2182,-8.745 3.67927,-13.075 1.2045,-3.656 2.0449,-7.439 3.2247,-11.099 0.5253,-1.631 1.1937,-3.214 1.7117,-4.8489 0.543,-1.7139 0.9194,-3.479 1.4923,-5.1826 1.0062,-2.9927 2.19,-5.9317 2.8932,-9.0165 -1.3155,-3.8748 -3.0142,-7.6495 -4.4459,-11.4846 L 6.49188,46.3805 C 5.35472,43.3096 4.26205,40.2148 3.07721,37.1628 2.22652,34.9714 1.15315,32.7453 0.590546,30.4649 0.229466,29.0014 0.12528,27.4739 0,25.9755 0.69085,27.2231 1.18853,28.6225 1.74173,29.9369 1.63157,29.4016 1.52022,28.8652 1.4313,28.326 1.3601,27.8943 1.31381,27.4216 1.57809,27.0466 c 0.85503,0.4293 1.40049,2.1839 1.80842,3.0677 -0.28976,-1.2772 -0.5986,-2.5714 -0.71872,-3.8781 -0.0941,-1.0235 -0.13691,-2.184 0.55545,-3.015 0.25885,-0.1123 0.30708,-0.1807 0.5986,-0.1253 1.00083,0.1899 2.05392,1.7297 2.60342,2.5404 -0.26878,-1.7365 -0.9312,-3.8879 -0.50329,-5.6365 0.0893,-0.3647 0.23594,-0.4865 0.53418,-0.6885 0.30054,-0.0352 0.53118,-0.0385 0.81454,0.0699 1.06627,0.408 1.83275,1.4479 2.58685,2.2641 1.14086,1.2349 2.46356,2.482 3.37656,3.8981 1.7546,2.7215 2.9682,6.0256 4.1915,9.0142 2.3544,5.8112 4.5308,11.6931 6.5259,17.6373 0.5036,1.4893 0.9104,3.0091 1.4201,4.4988 0.6715,1.9628 1.448,3.8769 2.145,5.8276 0.7891,2.2089 1.521,4.413 2.528,6.537 1.1409,-2.9115 3.3474,-6.5704 4.7974,-9.4985 1.6094,-3.2496 3.287,-6.4769 4.8658,-9.7391 2.4129,-4.9858 12.3128,-26.2302 15.1587,-28.6149 0.4745,-0.3977 0.9251,-0.3691 1.5064,-0.2825 0.0768,0.0114 0.1527,0.045 0.2299,0.0365 0.1082,-0.012 3.7989,-3.6245 5.4617,-4.2582 z"
       fill="#DA3119"
       id="path9"
       style="fill:#cc0000" />
    <path
       fill-rule="evenodd"
       clip-rule="evenodd"
       d="m 238.801,23.0107 c 1.322,-0.0688 2.556,0.5993 3.644,1.293 1.6,1.0199 4.31,2.5023 5.277,4.1514 1.692,2.8843 3.348,24.6666 3.732,29.3408 0.218,2.6518 0.201,5.577 0.794,8.166 0.015,0.0601 0.028,0.1199 0.043,0.1797 1.777,-0.3886 4.293,-0.9488 5.909,0.1348 0.358,0.24 0.609,0.5524 0.685,0.9882 0.152,0.8697 -0.26,1.3977 -0.743,2.0674 0.814,0.3552 1.997,0.851 2.296,1.7715 0.102,0.3181 0.049,0.6451 -0.1,0.9385 -0.905,1.7862 -6.024,2.9469 -7.93,3.6103 0.375,3.9863 0.415,8.0498 0.586,12.0528 0.15,3.4667 0.439,6.9384 0.547,10.4043 0.07,2.2436 0.13,7.3866 -1.471,9.0946 l -0.206,-0.045 c -0.901,-0.999 -0.934,-2.806 -1.362,-4.072 l -0.064,-0.182 c -0.121,2.398 -0.223,5.035 -0.916,7.34 -0.244,0.817 -0.525,1.629 -1.307,2.054 -0.286,-0.006 -0.342,0.021 -0.606,-0.13 -0.55,-0.312 -1.058,-0.84 -1.504,-1.285 -2.632,-2.628 -2.226,-5.606 -3.061,-8.937 -0.018,0.645 0.076,1.575 -0.354,2.081 -0.15,-0.049 -0.171,-0.043 -0.316,-0.159 -0.709,-0.57 -1.175,-2.446 -1.339,-3.334 -0.249,-1.349 -0.258,-2.7469 -0.381,-4.1122 -0.342,-3.7937 -0.617,-7.6068 -0.871,-11.4091 -0.116,-1.731 -0.132,-3.5366 -0.448,-5.2413 -0.012,-0.0611 -0.023,-0.1225 -0.036,-0.1835 -3.148,1.0327 -6.242,2.2235 -9.406,3.2119 -2.105,0.6499 -4.209,1.3615 -6.239,2.2177 l -5.012,13.795 c -0.929,2.6055 -1.738,5.3255 -2.857,7.8535 -0.606,1.371 -2.057,4.409 -3.659,4.802 -0.414,0.102 -0.493,0.055 -0.841,-0.141 -0.507,-0.806 -0.398,-1.758 -0.378,-2.671 -0.89,1.346 -1.779,2.431 -3.107,3.371 -1.263,-0.895 -1.762,-1.84 -2.221,-3.274 l 0.855,-3.98 c -0.677,1.355 -1.203,2.464 -2.429,3.417 -0.828,-1.205 -1.296,-2.341 -1.739,-3.733 0.616,-3.218 2.437,-6.7608 3.621,-9.8574 1.718,-4.4955 3.275,-9.0826 5.08,-13.5371 1.897,-4.6824 4.037,-9.2682 5.949,-13.9473 l 8.383,-20.9092 c 2.294,-5.8211 4.919,-12.6799 7.784,-18.2246 0.302,-0.5832 0.599,-1.228 1.266,-1.4385 0.259,0.0429 0.53,0.0971 0.793,0.1065 1.845,0.0663 2.059,-1.5689 2.633,-2.5742 0.248,-0.4334 0.648,-0.7518 1.026,-1.0655 z m -0.979,25.1563 c -2.486,7.4377 -5.294,14.7938 -8.088,22.1211 l 1.385,-0.2891 c 2.735,-0.6207 5.387,-1.5964 8.101,-2.3008 -0.087,-2.7738 -0.178,-18.1921 -1.398,-19.5312 z"
       fill="#DA3119"
       id="path10"
       style="fill:#cc0000" />
    <path
       d="m 283.26,0.021144 c 0.262,-0.0179 0.526,-0.0475004 0.782,0.0270996 0.59,0.1716804 0.911,0.5683614 1.2,1.0861864 0.252,0.45571 0.521,1.04618 1.003,1.29608 0.167,-0.13257 0.364,-0.32019 0.555,-0.41028 0.406,-0.19233 0.802,-0.0532 1.186,0.12466 2.031,0.93926 4.435,2.57078 5.219,4.74622 0.492,1.36758 0.716,4.44359 0.501,5.88679 -0.185,1.237 -0.715,2.5167 -1.04,3.7306 -0.747,2.7935 -1.502,5.6088 -2.195,8.4154 -2.108,8.4138 -4.296,16.8068 -6.567,25.178 -0.544,2.0514 -0.975,4.1316 -1.526,6.1805 -1.009,3.7518 -2.156,7.4769 -3.127,11.2364 -0.469,1.8138 -0.69,3.6885 -1.073,5.5217 -0.527,2.5248 -1.199,5.0231 -1.8,7.5317 -0.45,1.8785 -0.765,3.7629 -1.613,5.5114 -0.121,0.2234 -0.271,0.5363 -0.463,0.7068 -0.341,0.3057 -0.802,0.3886 -1.245,0.4256 -2.877,0.2396 -3.977,-2.4504 -5.691,-2.3195 -0.253,0.0193 -0.505,0.0333 -0.76,0.0224 -0.419,-0.0176 -0.801,-0.185 -1.078,-0.5093 -1.109,-1.2992 -0.722,-4.2616 -0.631,-5.9031 0.252,-4.5062 1.218,-9.0642 1.861,-13.531 1.379,-9.5707 3,-19.4715 4.886,-28.9661 1.211,-6.1028 2.683,-12.1492 3.934,-18.2411 0.393,-1.9133 2.823,-15.0092 3.623,-15.65725 0.042,-0.0346 0.088,-0.0653 0.132,-0.0983 1.153,-0.86704 2.613,-1.414756 3.927,-1.991606 z"
       fill="#DA3119"
       id="path11"
       style="fill:#cc0000" />
    <path
       d="m 265.617,89.5637 c 0.945,-0.0674 2.123,0.164 3.035,0.4175 2.379,0.6591 4.259,2.4931 5.439,4.6069 0.884,1.582 1.588,3.5522 1.057,5.354 -0.598,2.0229 -3.186,7.7459 -4.446,9.3209 -0.355,0.442 -0.882,0.707 -1.371,0.975 -0.153,0.531 -0.284,0.897 -0.627,1.333 -0.11,0.039 -0.221,0.072 -0.334,0.102 -1.541,0.386 -4.22,-1.021 -5.537,-1.867 -0.452,-0.288 -1.199,-0.901 -1.37,-1.429 -0.081,-0.251 -0.006,-0.597 -0.092,-0.846 -0.378,-1.088 -1.932,-1.204 -2.372,-3.685 -0.568,-3.202 0.256,-8.2472 2.107,-10.9483 1.144,-1.6714 2.461,-2.9488 4.511,-3.334 z"
       fill="#DA3119"
       id="path12"
       style="fill:#cc0000" />
  </g>
</svg>
