<?xml version="1.0" encoding="UTF-8" standalone="no"?>
<!-- Created with Inkscape (http://www.inkscape.org/) -->

<svg
   width="31.906038mm"
   height="33.744808mm"
   viewBox="0 0 31.906038 33.744808"
   version="1.1"
   id="svg1"
   xmlns="http://www.w3.org/2000/svg"
   xmlns:svg="http://www.w3.org/2000/svg">
  <defs
     id="defs1" />
  <g
     id="layer1"
     transform="translate(-48.591462,-132.83425)">
    <path
       d="m 78.805208,133.57389 c 1.106806,0.18059 0.220123,1.03159 0.584945,1.34696 0.09497,-0.0479 0.180471,-0.0871 0.295268,-0.12365 0.154323,0.0437 0.18782,0.0884 0.23861,0.17098 0.366069,0.59594 0.834646,1.53682 0.396295,2.12842 -0.695817,0.93904 -1.844447,1.84112 -2.747492,2.73817 l -4.896958,4.84841 c -0.431048,0.41718 -0.902906,0.82474 -1.317408,1.24582 -0.388716,0.39494 -0.720863,0.80223 -1.108748,1.19689 -0.452862,0.4607 -0.962616,0.89834 -1.364688,1.37166 -0.566736,0.66721 -1.014238,1.33758 -1.519138,2.01459 -0.271051,0.36371 -0.586239,0.71889 -0.848926,1.08421 -0.924072,1.28491 -1.76528,2.58726 -2.649746,3.87934 -0.240459,0.3512 -0.566828,0.68768 -0.819025,1.03733 l -2.371391,3.35936 c -0.275859,0.38938 -0.481886,0.78971 -0.763429,1.17888 -0.530873,0.73367 -1.154178,1.46064 -1.754744,2.18182 -0.292173,0.35076 -0.54862,0.76314 -0.945515,1.08823 -0.100931,0.0826 -0.206397,0.14223 -0.398468,0.16834 -0.169746,-0.19558 0.343288,-0.7685 0.455405,-0.994 -0.322814,0.29338 -0.510031,0.61869 -0.770638,0.92568 -0.257095,0.30277 -0.592386,0.59525 -0.905909,0.88506 -0.189575,0.17527 -0.38904,0.3847 -0.673955,0.52938 -0.152873,0.0779 -0.408128,0.13217 -0.60334,0.18219 0.135405,-0.20564 0.259221,-0.40391 0.329236,-0.61735 -0.322627,0.35478 -0.710511,0.95002 -1.377126,1.17843 l -0.100733,-0.0179 c -0.07955,-0.0598 -0.08147,-0.0924 -0.07224,-0.16054 0.0091,-0.0674 0.008,-0.1266 -0.0086,-0.19425 -0.0687,0.0107 -0.137711,0.0212 -0.206805,0.0315 -0.04878,-0.0262 -0.06481,-0.0324 -0.104624,-0.0674 -0.571197,-0.50437 -0.510465,-1.48722 -0.356995,-2.04518 0.08992,-0.32709 0.26627,-0.65307 0.409814,-0.97547 l -0.04284,-0.007 0.02667,-0.0317 c -0.466602,0.2985 -0.376449,0.81695 -0.667897,1.15409 -0.122095,0.006 -0.09653,0.0163 -0.189865,-0.0186 -0.46356,-0.17416 -0.218539,-0.58677 -0.325333,-0.83013 -0.05882,0.0927 -0.112067,0.23979 -0.251668,0.3061 -0.118428,-0.20675 -0.332699,-0.47423 -0.287237,-0.68835 0.147684,-0.69616 0.875296,-1.77189 1.259479,-2.47855 0.240992,-0.4432 0.448625,-0.89086 0.69986,-1.33316 0.177983,-0.31302 0.408231,-0.61869 0.577943,-0.93305 0.532431,-0.98553 1.025131,-1.95252 1.70038,-2.9193 0.55666,-0.81629 0.945053,-1.66092 1.490301,-2.4781 0.242766,-0.36415 0.551669,-0.7176 0.791063,-1.08265 0.25095,-0.38265 0.424903,-0.77674 0.68967,-1.15711 0.465016,-0.66819 1.012111,-1.32439 1.337096,-2.01314 -0.607959,-0.86514 -1.393017,-1.70792 -2.054679,-2.5642 l -4.458848,-5.87473 c -0.52554,-0.68565 -1.030519,-1.37663 -1.578094,-2.05806 -0.393148,-0.48927 -0.889208,-0.9863 -1.149215,-1.49545 -0.166881,-0.32677 -0.215024,-0.66781 -0.272923,-1.00236 0.319277,0.27856 0.549282,0.591 0.804942,0.88447 -0.05091,-0.11952 -0.102375,-0.23928 -0.143457,-0.35967 -0.03291,-0.0964 -0.0543,-0.20193 0.06784,-0.28565 0.395155,0.0958 0.647238,0.4876 0.835766,0.68493 -0.133922,-0.28517 -0.276645,-0.57413 -0.332159,-0.86587 -0.0435,-0.22852 -0.06327,-0.48763 0.256702,-0.67317 0.119632,-0.0251 0.14192,-0.0403 0.276644,-0.028 0.462535,0.0424 0.949222,0.3862 1.203174,0.5672 -0.124209,-0.38771 -0.430355,-0.86806 -0.232596,-1.25848 0.04128,-0.0814 0.10905,-0.10862 0.246872,-0.15372 0.1389,-0.008 0.245486,-0.009 0.376442,0.0156 0.492796,0.0911 0.84699,0.32327 1.195498,0.50551 0.527269,0.27572 1.138555,0.55416 1.5605,0.87033 0.810891,0.60765 1.371758,1.34536 1.937109,2.01263 1.08809,1.29749 2.093916,2.61075 3.015954,3.93793 0.232739,0.33252 0.420744,0.67185 0.656301,1.00446 0.310336,0.43824 0.669196,0.86561 0.991316,1.30114 0.364684,0.49319 0.702933,0.98531 1.168319,1.45954 0.527268,-0.65006 1.547006,-1.467 2.217126,-2.12076 0.743786,-0.72554 1.519091,-1.44611 2.248737,-2.17448 1.115126,-1.11319 5.690378,-5.85648 7.005616,-6.38892 0.219292,-0.0888 0.427537,-0.0824 0.696185,-0.063 0.03549,0.003 0.07057,0.01 0.106255,0.008 0.05,-0.003 1.755668,-0.80925 2.524133,-0.95074 z"
       fill="#515150"
       id="path3"
       style="fill:#333333;stroke-width:0.321225" />
    <path
       d="m 77.274667,132.83446 c 1.106807,0.18059 0.220123,1.03159 0.584945,1.34696 0.09497,-0.0479 0.180471,-0.0871 0.295268,-0.12364 0.154322,0.0437 0.187818,0.0884 0.23861,0.17097 0.366069,0.59594 0.834645,1.53682 0.396295,2.12842 -0.695817,0.93904 -1.844447,1.84113 -2.747492,2.73817 l -4.896958,4.84841 c -0.431048,0.41719 -0.902905,0.82475 -1.317408,1.24582 -0.388715,0.39495 -0.720864,0.80224 -1.108748,1.1969 -0.452862,0.4607 -0.962616,0.89834 -1.364687,1.37165 -0.566738,0.66721 -1.014239,1.33758 -1.519139,2.01459 -0.271051,0.36371 -0.58624,0.7189 -0.848926,1.08421 -0.924071,1.28492 -1.76528,2.58726 -2.649746,3.87935 -0.240457,0.3512 -0.566829,0.68767 -0.819024,1.03732 l -2.371393,3.35936 c -0.275858,0.38939 -0.481884,0.78971 -0.763427,1.17888 -0.530874,0.73367 -1.154179,1.46065 -1.754745,2.18182 -0.292171,0.35076 -0.54862,0.76315 -0.945515,1.08823 -0.100943,0.0826 -0.206397,0.14223 -0.398468,0.16835 -0.169745,-0.19559 0.343287,-0.76851 0.455406,-0.99401 -0.322815,0.29338 -0.51003,0.61869 -0.770639,0.92569 -0.257096,0.30276 -0.592386,0.59524 -0.905909,0.88505 -0.189575,0.17527 -0.389039,0.3847 -0.673956,0.52938 -0.152872,0.0779 -0.408102,0.13218 -0.60332,0.18219 0.135424,-0.20563 0.259216,-0.4039 0.329208,-0.61734 -0.322608,0.35477 -0.710483,0.95002 -1.377119,1.17843 l -0.100733,-0.0179 c -0.07953,-0.0598 -0.08147,-0.0924 -0.07224,-0.16054 0.0091,-0.0674 0.008,-0.12659 -0.0086,-0.19424 -0.0687,0.0107 -0.137712,0.0212 -0.206804,0.0315 -0.04878,-0.0261 -0.0648,-0.0324 -0.104624,-0.0674 -0.571195,-0.50437 -0.510464,-1.48722 -0.356994,-2.04517 0.08991,-0.3271 0.26627,-0.65308 0.409814,-0.97549 l -0.04284,-0.007 0.02667,-0.0317 c -0.4666,0.29852 -0.37645,0.81696 -0.667896,1.1541 -0.122095,0.006 -0.09653,0.0163 -0.189866,-0.0186 -0.463561,-0.17415 -0.218536,-0.58676 -0.325331,-0.83012 -0.05882,0.0926 -0.112067,0.23979 -0.25167,0.3061 -0.118427,-0.20675 -0.332698,-0.47423 -0.287236,-0.68835 0.147684,-0.69616 0.875298,-1.77189 1.259479,-2.47855 0.240994,-0.4432 0.448624,-0.89086 0.69986,-1.33315 0.177984,-0.31304 0.408232,-0.6187 0.577943,-0.93307 0.532417,-0.98552 1.025144,-1.95252 1.700379,-2.91929 0.556664,-0.81628 0.945055,-1.66092 1.490302,-2.4781 0.242768,-0.36416 0.551669,-0.7176 0.791064,-1.08262 0.250949,-0.38267 0.424902,-0.77677 0.689668,-1.15714 0.465018,-0.66819 1.012114,-1.32438 1.337098,-2.01314 -0.607961,-0.86514 -1.393018,-1.70792 -2.054681,-2.56419 l -4.458847,-5.87473 c -0.525539,-0.68565 -1.030519,-1.37663 -1.578094,-2.05806 -0.393148,-0.48928 -0.889208,-0.98631 -1.149215,-1.49547 -0.16688,-0.32675 -0.215025,-0.6678 -0.272923,-1.00236 0.319277,0.27856 0.549282,0.59101 0.804944,0.88448 -0.05091,-0.11952 -0.102376,-0.23928 -0.143474,-0.35967 -0.03291,-0.0964 -0.0543,-0.20193 0.06784,-0.28566 0.395153,0.0959 0.647239,0.48761 0.835763,0.68494 -0.13392,-0.28516 -0.276642,-0.57413 -0.332156,-0.86588 -0.0435,-0.22852 -0.06327,-0.48762 0.256703,-0.67316 0.119631,-0.0251 0.14192,-0.0403 0.276643,-0.028 0.462535,0.0424 0.949222,0.38619 1.203175,0.5672 -0.124209,-0.38771 -0.430356,-0.86806 -0.232597,-1.25848 0.04128,-0.0814 0.10905,-0.10862 0.246872,-0.15372 0.1389,-0.008 0.245486,-0.009 0.37644,0.0156 0.492779,0.0911 0.847009,0.32328 1.195517,0.50552 0.52725,0.27572 1.138539,0.55416 1.560483,0.87034 0.81089,0.60763 1.371757,1.34535 1.937107,2.01262 1.08809,1.29748 2.093917,2.61075 3.015956,3.93793 0.23274,0.33252 0.420742,0.67185 0.656301,1.00446 0.310335,0.43824 0.669196,0.8656 0.991315,1.30114 0.364683,0.49319 0.702933,0.9853 1.168319,1.45953 0.527269,-0.65005 1.547007,-1.46698 2.217126,-2.12075 0.743787,-0.72555 1.519093,-1.44611 2.248737,-2.17447 1.115126,-1.1132 5.690381,-5.85649 7.005617,-6.38893 0.219291,-0.0888 0.427537,-0.0824 0.696186,-0.063 0.03549,0.003 0.07057,0.01 0.106255,0.008 0.05001,-0.003 1.755668,-0.80925 2.524133,-0.95074 z"
       fill="#DA3119"
       id="path9"
       style="fill:#cc0000;stroke-width:0.321225" />
  </g>
</svg>
